<svg width="324" height="323" viewBox="0 0 324 323" fill="none" xmlns="http://www.w3.org/2000/svg">
<path d="M312.525 140.034C312.164 113.435 302.271 87.7589 287.204 67.9377C278.39 56.342 267.783 46.1843 256.203 38.274C244.186 30.0646 231.12 20.8708 216.62 19.4605C213.041 19.1123 209.372 19.279 205.84 20.3914C192.317 24.6499 219.076 39.8263 222.573 42.0453C185.172 25.1473 146.46 7.97853 105.577 9.59741C97.6936 9.90943 89.5166 11.0302 82.5863 15.6524C75.656 20.2745 70.2922 29.188 71.3239 38.0233C72.1773 45.327 76.8466 53.4866 72.4667 59.1947C71.2141 60.8271 69.4389 61.7923 67.696 62.6295C58.7527 66.9286 49.0976 69.1831 40.6253 74.6522C27.5057 83.1212 18.5515 98.6821 14.4016 115.056C10.2517 131.429 10.4507 148.633 12.0799 165.287C15.1458 196.632 23.4824 227.728 40.3527 252.105C64.4505 286.923 103.959 304.658 143.532 307.58C191.417 311.117 243.334 292.593 274.999 249.72C279.695 243.362 284.001 236.317 285.709 228.342C287.417 220.368 286.064 211.281 280.807 206.043C279.391 204.632 277.567 203.136 277.721 200.945C277.929 197.981 281.299 196.979 283.868 196.357C300.724 192.275 310.363 170.676 312.102 151.252C312.439 147.504 312.575 143.761 312.525 140.034Z" fill="#F0C323"/>
<path opacity="0.5" d="M312.525 140.034C312.164 113.435 302.271 87.7589 287.204 67.9377C278.39 56.342 267.783 46.1843 256.203 38.274C244.186 30.0646 231.12 20.8708 216.62 19.4605C213.041 19.1123 209.372 19.279 205.84 20.3914C192.317 24.6499 219.076 39.8263 222.573 42.0453C185.172 25.1473 146.46 7.97853 105.577 9.59741C97.6936 9.90943 89.5166 11.0302 82.5863 15.6524C75.656 20.2745 70.2922 29.188 71.3239 38.0233C72.1773 45.327 76.8466 53.4866 72.4667 59.1947C71.2141 60.8271 69.4389 61.7923 67.696 62.6295C58.7527 66.9286 49.0976 69.1831 40.6253 74.6522C27.5057 83.1212 18.5515 98.6821 14.4016 115.056C10.2517 131.429 10.4507 148.633 12.0799 165.287C15.1458 196.632 23.4824 227.728 40.3527 252.105C64.4505 286.923 103.959 304.658 143.532 307.58C191.417 311.117 243.334 292.593 274.999 249.72C279.695 243.362 284.001 236.317 285.709 228.342C287.417 220.368 286.064 211.281 280.807 206.043C279.391 204.632 277.567 203.136 277.721 200.945C277.929 197.981 281.299 196.979 283.868 196.357C300.724 192.275 310.363 170.676 312.102 151.252C312.439 147.504 312.575 143.761 312.525 140.034Z" fill="white"/>
<path d="M139.643 274.292L138.915 278.543M138.187 282.815L143.749 286.515L147.481 288.106L151.534 289.821L151.836 287.721L147.761 286.474L146.452 286.068C146.452 286.068 144.196 284.27 143.448 283.677C142.699 283.075 141.202 282.024 141.202 282.024L139.996 279.623L138.915 278.542M90.8916 179.981L86.8063 176.603L81.5673 176.676L79.2598 178.911L80.3412 179.691L83.2831 177.83L89.3122 182.498L96.2037 182.934L97.1391 181.489L90.8916 179.981ZM100.299 79.433L98.7916 81.6888H100.59L103.449 79.8903L100.299 79.433ZM103.147 72.3961L99.3943 72.6978L95.4963 76.8974L98.3445 79.1429L101.64 76.5964L102.991 78.0932L104.945 76.5964L103.147 72.3961ZM102.524 181.633L98.8646 182.423L99.8626 185.947L96.422 185.719L95.632 188.161L101.952 187.881L102.805 186.155L106.255 186.727L106.765 184.222L102.524 181.633ZM127.263 47.0742L126.369 48.571L129.508 50.8165L131.909 47.5212L127.263 47.0742ZM127.263 61.4606L130.413 59.3611V55.9205L127.866 54.5691L128.458 52.6253L122.918 51.1181L123.822 47.0748L118.718 49.0186L112.138 56.0665L113.936 57.865L118.125 57.1163L120.818 60.4115C120.818 60.4115 119.768 67.1577 119.321 67.4594C118.874 67.7507 116.327 70.1519 115.735 70.5983C115.132 71.0453 113.032 72.2507 113.032 72.2507L108.084 72.5524L107.035 74.7979L113.936 74.4962L117.221 83.3419H121.275L119.768 78.8412L122.918 78.3942L125.017 74.6519L123.375 72.3961C123.375 72.3961 123.967 69.4025 124.124 68.7992C124.269 68.2068 126.515 68.4975 126.515 68.4975L127.564 72.5511L131.015 68.7985L132.356 65.3579L127.263 61.4606ZM137.605 115.409L132.511 116.905L130.713 115.107L131.015 112.259L126.815 114.057L123.073 120.793L125.619 123.797L129.964 120.648L129.362 124.088L131.908 124.847L133.114 121.989L134.61 124.692L139.402 119.744L137.605 115.409ZM112.637 44.0076L112.887 45.1304C112.887 45.1304 119.321 44.3817 122.772 43.6336C126.223 42.8855 123.967 42.7292 123.967 42.7292C123.967 42.7292 124.871 41.8351 125.318 41.6794C125.776 41.5341 129.206 41.6794 129.206 41.6794L125.173 44.8293C125.173 44.8293 126.368 44.8293 128.166 44.8293C129.965 44.8293 131.305 44.985 131.305 44.985L132.657 44.5276L134.008 42.8855L135.36 41.9811C135.36 41.9811 139.995 40.0373 141.201 39.5799C142.158 39.2266 144.538 36.4927 145.463 35.3906C133.988 36.8254 122.969 39.7563 112.637 44.0076ZM138.946 268.086L140.339 270.207L140.692 268.086H138.946ZM99.997 50.2241L108.604 45.7337C104.81 47.4489 101.109 49.3404 97.5332 51.3882L90.34 55.8268C89.7889 56.2009 89.2275 56.5756 88.6765 56.9599L89.2069 58.0097L84.8619 65.5149L87.4084 66.409L89.6539 63.5607L96.6914 64.6105L99.3943 62.812L101.941 60.1092L102.544 55.7745L108.23 53.0716L100.589 54.1214L99.997 50.2241ZM192.894 71.2003V67.7494H188.102L187.655 69.7036L184.724 69.2152L181.356 68.6538L180.161 71.3457L184.018 73.3515L183.955 73.7152L182.407 75.3993L183.591 75.867L189.6 78.2372L195.899 73.6009L192.894 71.2003ZM214.474 103.414L209.827 102.062L208.486 105.212L210.274 107.914L208.632 110.305C208.632 110.305 209.526 111.21 209.973 111.657C210.42 112.104 214.62 110.305 214.62 110.305L214.474 103.414ZM224.661 107.914L222.114 101.314L218.372 99.2141L219.266 95.3265L215.223 94.5778L216.875 91.5739L213.268 92.0313L211.626 95.6275L213.424 100.263L214.921 100.118L219.121 104.619L218.819 107.311L216.875 107.02L216.418 111.656L219.266 112.55L216.127 114.359L217.322 117.8L221.958 114.359L226.459 114.65L227.966 109.11L224.661 107.914ZM242.727 135.086L241.698 136.042L242.176 137.892L243.756 138.235L242.727 135.086ZM243.683 140.221L241.219 139.4L241.968 143.028L242.176 144.608L241.833 145.086L243.548 145.637L244.847 143.912L243.683 140.221ZM252.311 146.728L249.089 146.583L248.205 147.955L251.084 149.047L251.833 150.492L252.789 151.043L252.311 146.728ZM286.395 166.644L286.55 173.235L289.575 178.276C290.146 173.359 290.438 168.37 290.438 163.308C290.438 122.81 271.769 86.6888 242.57 63.051L242.342 65.8056L248.038 70.4523L251.032 79.8903L242.643 75.0983L241.147 71.0447C241.147 71.0447 242.643 69.5479 242.789 69.1008C242.945 68.6538 234.546 61.4606 234.546 61.4606L222.561 57.1156L221.209 61.7623L226.614 77.3438L223.465 83.3413L227.966 93.9751L231.251 94.7238L233.35 90.5241L240.242 101.314L243.09 99.9622L240.242 94.1308L241.448 89.4737L235.897 84.0893L234.848 71.9484L237.851 72.3954L241.448 85.2851L246.094 91.1269L251.333 87.8316L252.228 92.0313L249.691 93.081C249.691 93.081 252.228 97.873 252.383 98.3201C252.529 98.7671 250.138 100.42 250.138 100.42L249.992 105.971L238.454 107.02L235.304 96.8233L232.3 98.0184L234.546 107.02L231.698 107.769L230.503 112.706L220.17 120.347L223.767 123.195L224.816 133.382L212.821 132.935L212.218 141.022L211.771 145.222L217.021 146.874C217.021 146.874 217.021 148.225 217.468 148.673C217.925 149.12 222.862 149.275 222.862 149.275L224.359 148.069H226.916L229.91 143.724L228.413 140.429L233.797 137.435L233.953 133.683L237.851 133.537C237.851 133.537 240.096 131.729 240.543 131.583C240.99 131.438 246.385 135.637 246.385 135.637L250.138 139.525L251.635 142.216L253.131 145.366L253.433 147.622L255.377 146.427L254.483 142.82L256.582 141.926L256.427 140.43L253.88 138.787L249.691 133.538L246.24 129.64L247.892 127.696L250.439 128.746L258.827 137.134L259.731 143.267L260.324 147.768L261.073 150.471L263.016 148.371C263.016 148.371 264.513 147.769 264.513 147.176C264.513 146.574 262.122 143.268 262.122 143.268L263.016 140.43H265.116L266.02 142.374L268.12 139.38L266.768 135.638L267.818 127.395L270.511 127.842L270.812 131.585L272.309 131.73L272.454 127.395L275.157 126.491L276.207 127.998L274.554 131.283L279.502 138.632C279.502 138.632 280.25 140.576 279.803 141.023C279.356 141.47 278.909 142.218 278.452 142.072C278.005 141.927 276.206 141.178 276.206 141.178L274.855 139.827L272.007 140.274L270.365 141.927C270.365 141.927 269.013 142.676 268.421 142.977C267.818 143.268 266.914 144.474 266.914 144.474L266.768 146.272L267.963 150.315V151.51H270.219L271.706 153.007C271.706 153.007 273.504 153.61 273.951 153.766C274.409 153.912 276.051 151.667 276.051 151.667L277.1 153.611L275.458 163.205C275.458 163.205 272.308 163.35 271.862 163.35C271.416 163.35 267.964 165.003 267.964 165.003L261.966 159.161L259.877 159.764L258.972 164.701L258.525 166.053C258.525 166.053 254.482 163.049 254.025 163.049C253.578 163.049 252.081 159.161 252.081 159.161L245.043 155.564L246.842 153.163L246.093 148.069L242.185 148.974L223.765 152.414L221.209 151.364L215.522 157.363L212.976 157.81L212.674 164.701L206.084 169.649L201.281 177.144L198.59 181.779L198.745 197.964L208.028 210.105L228.713 209.803L232.601 211.902L235.449 212.495L232.3 221.195C232.3 221.195 234.545 231.538 235.595 232.879C236.645 234.22 224.212 248.605 224.212 248.605C224.212 248.605 222.716 254 222.716 254.458C222.716 254.905 222.716 255.653 222.716 255.653L213.423 269.135L215.668 268.989L228.714 264.489L232.903 262.254C232.903 262.254 237.851 255.051 238.298 254.905C238.745 254.75 246.988 247.265 246.988 247.265L251.78 245.009L254.773 240.519L259.877 229.885L273.058 217.297L277.101 211.008L279.502 203.202L274.253 205V185.978L271.862 172.642L272.454 168.598L274.554 168.453L276.207 169.503L277.257 187.173L276.955 198.265L279.356 201.414L286.695 182.974L284.449 174.741L284.741 167.101L286.395 166.644Z" stroke="#202020" stroke-width="0.646" stroke-miterlimit="10" stroke-linecap="round" stroke-linejoin="round"/>
<path d="M147.481 288.106L146.93 291.381C143.572 291.007 140.267 290.497 136.992 289.863C77.5454 278.408 32.6406 226.112 32.6406 163.307C32.6406 137.372 40.2912 113.236 53.4715 93.0186L51.9018 98.476L51.1531 100.565L47.4004 108.517L46.7977 118.548L41.715 132.331L39.9062 150.168L40.9559 154.659L41.1116 160.209L47.0988 176.539L49.4999 177.734L42.9094 160.354L44.7079 160.053L46.7971 164.398L48.7512 170.697C48.7512 170.697 57.1395 187.63 58.0336 188.379C58.938 189.127 60.7365 192.266 60.7365 192.266L67.0253 190.78L69.4265 194.667L77.3677 196.019L81.7127 203.357L90.4027 205.758L91.3071 204.251L94.457 205.603L96.0991 212.204L93.2509 220.291L96.2445 225.083V229.885L98.1986 231.538L105.694 239.626L115.132 244.708L130.256 275.581L137.459 282.327L138.187 282.815L143.748 286.516L147.481 288.106Z" fill="#0F2289" stroke="#202020" stroke-width="0.646" stroke-miterlimit="10" stroke-linecap="round" stroke-linejoin="round"/>
<path d="M286.552 173.235L286.396 166.644L284.743 167.102L284.452 174.742L286.698 182.975L279.359 201.415L276.958 198.265L277.26 187.174L276.21 169.504L274.557 168.454L272.457 168.599L271.865 172.642L274.256 185.979V205.001L279.505 203.203L277.104 211.009L273.061 217.298L259.88 229.886L254.776 240.52L251.783 245.01L246.991 247.266C246.991 247.266 238.748 254.75 238.301 254.906C237.854 255.051 232.906 262.255 232.906 262.255L228.717 264.489L215.671 268.99L213.426 269.136L222.718 255.653C222.718 255.653 222.718 254.905 222.718 254.458C222.718 254.001 224.215 248.606 224.215 248.606C224.215 248.606 236.647 234.22 235.598 232.879C234.548 231.538 232.302 221.196 232.302 221.196L235.452 212.496L232.604 211.903L228.716 209.804L208.03 210.105L198.748 197.964L198.592 181.78L201.284 177.144L206.087 169.65L212.677 164.702L212.979 157.81L215.525 157.363L221.211 151.365L223.768 152.415L242.188 148.974L246.096 148.07L246.845 153.164L245.046 155.565L252.084 159.162C252.084 159.162 253.58 163.049 254.027 163.049C254.485 163.049 258.528 166.053 258.528 166.053L258.975 164.702L259.88 159.764L261.969 159.162L267.967 165.004C267.967 165.004 271.418 163.351 271.865 163.351C272.312 163.351 275.461 163.206 275.461 163.206L277.103 153.611L276.053 151.668C276.053 151.668 274.411 153.913 273.954 153.767C273.507 153.611 271.708 153.008 271.708 153.008L270.222 151.511H267.966V150.316L266.771 146.273L266.916 144.474C266.916 144.474 267.821 143.268 268.424 142.978C269.016 142.676 270.367 141.928 270.367 141.928L272.01 140.275L274.858 139.828L276.209 141.179C276.209 141.179 278.008 141.928 278.455 142.073C278.912 142.218 279.359 141.47 279.806 141.023C280.253 140.576 279.504 138.633 279.504 138.633L274.557 131.284L276.21 127.999L275.16 126.492L272.457 127.396L272.312 131.731L270.815 131.585L270.513 127.843L267.821 127.396L266.771 135.639L268.123 139.381L266.023 142.375L265.119 140.431H263.019L262.125 143.269C262.125 143.269 264.516 146.574 264.516 147.177C264.516 147.77 263.019 148.372 263.019 148.372L261.075 150.472L260.327 147.769L259.734 143.268L258.83 137.135L250.442 128.747L247.895 127.697L246.243 129.641L249.693 133.539L253.883 138.788L256.429 140.43L256.585 141.927L254.485 142.821L255.38 146.428L253.436 147.623L253.134 145.367L251.637 142.217L250.14 139.525L246.388 135.638C246.388 135.638 240.993 131.438 240.546 131.584C240.099 131.729 237.854 133.538 237.854 133.538L233.956 133.684L233.8 137.436L228.416 140.43L229.912 143.725L226.919 148.07H224.362L222.865 149.276C222.865 149.276 217.928 149.12 217.47 148.673C217.023 148.226 217.023 146.875 217.023 146.875L211.774 145.222L212.221 141.023L212.824 132.935L224.819 133.382L223.769 123.196L220.173 120.347L230.505 112.707L231.7 107.77L234.549 107.021L232.303 98.0192L235.307 96.8241L238.457 107.021L249.995 105.971L250.14 100.42C250.14 100.42 252.531 98.7679 252.386 98.3208C252.23 97.8738 249.694 93.0818 249.694 93.0818L252.23 92.032L251.336 87.8324L246.097 91.1276L241.45 85.2858L237.854 72.3962L234.85 71.9492L235.9 84.0901L241.45 89.4745L240.244 94.1315L243.093 99.963L240.244 101.314L233.353 90.5249L231.253 94.7245L227.968 93.9758L223.468 83.342L226.617 77.3446L221.212 61.763L222.563 57.1164L234.549 61.4614C234.549 61.4614 242.947 68.6546 242.792 69.1016C242.646 69.5486 241.149 71.0454 241.149 71.0454L242.646 75.0991L251.035 79.8911L248.041 70.453L242.345 65.8064L242.573 63.0518C227.511 50.8592 209.653 42.0025 190.101 37.5852C186.858 36.8468 183.562 36.2338 180.226 35.7557C174.124 34.8617 167.887 34.4043 161.536 34.4043C156.089 34.4043 150.737 34.7473 145.467 35.392C144.541 36.4941 142.161 39.228 141.205 39.5813C139.999 40.0387 135.363 41.9825 135.363 41.9825L134.012 42.8869L132.66 44.5291L131.309 44.9864C131.309 44.9864 129.968 44.8307 128.17 44.8307C126.371 44.8307 125.176 44.8307 125.176 44.8307L129.209 41.6808C129.209 41.6808 125.779 41.5355 125.322 41.6808C124.875 41.8365 123.97 42.7306 123.97 42.7306C123.97 42.7306 126.226 42.8863 122.775 43.635C119.324 44.3837 112.89 45.1318 112.89 45.1318L112.641 44.009C111.996 44.2687 111.352 44.5394 110.718 44.8094L111.539 46.1815L104.2 51.5763L112.141 50.6719L110.79 54.2688L103.898 58.0111L104.792 62.5118L103.743 64.7573L109.74 59.0608L114.085 61.909L110.489 66.7114L106.446 69.2476L100.895 69.705C100.895 69.705 91.1554 80.1934 90.563 80.3388C89.9603 80.4841 81.873 88.7271 81.4156 88.7271C80.9686 88.7271 80.8232 94.5792 80.8232 94.5792C80.8232 94.5792 88.9105 101.762 90.2613 101.918C91.6127 102.063 90.1056 110.161 90.1056 110.161L94.1593 111.356L95.0533 101.616C95.0533 101.616 101.352 100.119 101.352 99.2149C101.352 98.3208 100.303 91.5747 101.051 90.9823C101.8 90.3796 103.597 89.1838 103.597 89.1838C103.597 89.1838 105.25 81.0862 105.843 80.9408C106.446 80.7852 108.535 79.8911 109.585 80.0364C110.635 80.1921 114.387 84.0908 114.533 84.5371C114.688 84.9842 112.734 92.032 112.734 92.032C112.734 92.032 114.688 93.5288 115.281 93.5288C115.884 93.5288 122.329 86.6373 122.329 86.6373C122.329 86.6373 125.322 95.629 125.177 96.6787C125.021 97.7285 123.971 99.9636 123.971 99.9636L130.26 103.269L131.309 108.664L125.925 112.552C125.925 112.552 123.971 114.506 120.977 114.506C117.973 114.506 110.791 115.857 110.791 115.857L101.799 121.99L104.648 123.642L112.433 117.8H114.533L113.036 120.939L114.99 125.44L119.626 122.145L122.027 124.39L115.281 127.696L112.433 131.729L110.031 130.689L112.433 127.249L110.333 126.199L107.641 127.54L105.697 129.193L102.849 131.282L102.1 134.879V136.085L98.7943 138.029L94.158 139.983C94.158 139.983 92.3595 147.177 92.5055 147.624C92.6612 148.071 92.9629 151.667 92.9629 151.667L82.6204 159.91L86.061 172.487L83.9718 173.09L82.1734 169.047L82.3187 165.45L80.0732 162.446L77.9737 163.049L76.1753 161.854L71.3832 162.602V165.596L68.3793 164.401L66.1338 163.496L60.5938 168.299L61.4878 180.887L64.336 187.03L68.9827 186.583L71.0822 184.484L71.6849 180.294L76.7676 179.993L75.5725 191.074L82.4641 190.626L83.6702 198.869L86.6637 202.165L90.5617 200.97L94.0126 202.758L95.6548 199.317C95.6548 199.317 98.4926 199.619 98.6483 199.172C98.7937 198.714 99.9997 197.373 99.9997 197.373L102.245 197.218L101.944 203.059L104.199 203.506L103.898 199.764L106.444 198.714L108.835 200.066C108.835 200.066 110.634 200.066 111.236 200.222C111.839 200.367 113.939 202.467 113.939 202.467L116.486 201.116L122.629 205.003L125.924 207.706L131.61 207.259C131.61 207.259 141.652 213.995 141.049 214.151C140.457 214.296 139.999 218.049 139.999 218.049L148.638 221.448L158.19 225.2L159.032 225.533L164.582 228.236L164.728 230.481L157.389 240.377L156.786 250.564L153.564 252.393L146.755 256.25L143.45 268.089H138.949L140.342 270.21L141.506 271.987L140.997 273.675L139.645 274.294L138.917 278.546L139.998 279.627L141.204 282.028C141.204 282.028 142.701 283.077 143.45 283.681C144.198 284.273 146.454 286.072 146.454 286.072L147.763 286.477L151.838 287.725L151.536 289.824L147.483 288.109L146.932 291.384C151.724 291.924 156.598 292.205 161.536 292.205C227.667 292.205 282.156 242.414 289.578 178.279L286.552 173.235ZM249.089 146.583L252.311 146.728L252.789 151.042L251.833 150.491L251.084 149.046L248.205 147.954L249.089 146.583ZM242.728 135.086L243.757 138.236L242.177 137.893L241.699 136.043L242.728 135.086ZM243.684 140.221L244.848 143.911L243.549 145.636L241.834 145.085L242.177 144.607L241.969 143.027L241.22 139.399L243.684 140.221ZM213.269 92.0314L216.876 91.574L215.224 94.5779L219.267 95.3266L218.373 99.2142L222.115 101.314L224.662 107.915L227.967 109.11L226.46 114.65L221.959 114.358L217.324 117.799L216.129 114.358L219.267 112.55L216.419 111.656L216.877 107.019L218.82 107.311L219.122 104.618L214.923 100.117L213.426 100.263L211.627 95.627L213.269 92.0314ZM209.828 102.062L214.475 103.414L214.62 110.305C214.62 110.305 210.421 112.104 209.973 111.657C209.526 111.21 208.632 110.305 208.632 110.305L210.275 107.915L208.486 105.212L209.828 102.062ZM100.591 81.6889H98.7924L100.299 79.4331L103.449 79.8905L100.591 81.6889ZM102.992 78.092L101.641 76.5952L98.3453 79.1417L95.4971 76.8962L99.3951 72.6966L103.148 72.3949L104.946 76.5946L102.992 78.092ZM89.3123 182.497L83.2832 177.829L80.3413 179.69L79.2599 178.91L81.5674 176.675L86.8065 176.602L90.8918 179.98L97.1393 181.487L96.2038 182.932L89.3123 182.497ZM106.256 186.727L102.805 186.156L101.952 187.881L95.6321 188.161L96.4222 185.719L99.8628 185.948L98.8647 182.424L102.524 181.634L106.765 184.222L106.256 186.727ZM127.264 47.0743L131.91 47.5213L129.509 50.8166L126.37 48.5711L127.264 47.0743ZM131.015 68.7993L127.565 72.5519L126.515 68.4982C126.515 68.4982 124.269 68.2069 124.124 68.7999C123.968 69.4026 123.375 72.3969 123.375 72.3969L125.017 74.6527L122.918 78.395L119.768 78.842L121.275 83.3427H117.221L113.937 74.497L107.035 74.7987L108.084 72.5532L113.032 72.2515C113.032 72.2515 115.132 71.0454 115.735 70.599C116.327 70.152 118.874 67.7508 119.321 67.4601C119.768 67.1584 120.818 60.4123 120.818 60.4123L118.125 57.117L113.937 57.8657L112.138 56.0673L118.718 49.0194L123.822 47.0756L122.918 51.1189L128.459 52.626L127.866 54.5698L130.413 55.9213V59.3619L127.263 61.4614L132.357 65.3593L131.015 68.7993ZM134.612 124.692L133.116 121.989L131.91 124.848L129.364 124.088L129.966 120.648L125.621 123.797L123.075 120.793L126.817 114.057L131.017 112.259L130.715 115.107L132.514 116.906L137.607 115.409L139.406 119.743L134.612 124.692ZM179.559 59.6623C179.383 59.9743 177.792 60.5356 175.911 61.1074C173.239 61.9077 169.985 62.7185 169.372 62.8121C168.323 62.9575 168.021 68.0512 167.73 68.6539C167.429 69.2463 161.275 70.7534 160.527 70.7534C159.778 70.7534 154.841 77.791 154.841 77.791C154.841 77.791 155.142 80.6392 154.986 82.5933C154.841 84.5371 151.836 87.3853 150.641 88.4351C149.435 89.4745 145.402 85.5869 145.402 85.5869L143.448 81.2419L141.649 68.7993C141.649 68.7993 142.699 66.4084 143.749 65.5144C144.799 64.61 145.703 64.0073 146.753 63.2585C147.792 62.5098 147.345 61.3147 147.491 60.5557C147.647 59.8076 146.15 58.7572 146.15 58.7572C146.15 58.7572 143.904 58.4659 143.904 57.2604C143.904 56.0653 146.451 54.8696 146.451 54.8696C146.451 54.8696 146.004 53.5181 144.798 53.3728C143.603 53.2171 148.093 44.2358 147.791 43.4774C147.49 42.7287 144.798 41.9806 144.351 40.7848C143.904 39.5788 147.791 38.3837 147.791 38.3837C147.791 38.3837 148.54 37.7809 148.239 37.1886C147.947 36.5858 153.488 34.7874 153.488 34.7874C153.488 34.7874 161.575 34.4967 163.228 34.9431C164.88 35.3901 166.824 35.3901 168.02 36.2842C169.215 37.1886 173.269 39.5794 176.263 42.2816C177.136 43.0717 177.811 44.8075 178.331 46.8966C179.59 51.9807 179.871 59.1325 179.559 59.6623ZM189.6 78.238L183.591 75.8678L182.407 75.4001L183.955 73.716L184.018 73.3523L180.161 71.3465L181.356 68.6546L184.724 69.216L187.655 69.7043L188.103 67.7502H192.895V71.2011L195.898 73.6023L189.6 78.238Z" fill="#0F2289" stroke="#202020" stroke-width="0.646" stroke-miterlimit="10" stroke-linecap="round" stroke-linejoin="round"/>
<path d="M138.187 282.815L143.749 286.515L147.481 288.106L151.534 289.821L151.836 287.721L147.761 286.474L146.452 286.068C146.452 286.068 144.196 284.27 143.448 283.677C142.699 283.075 141.202 282.024 141.202 282.024L139.996 279.623L138.915 278.542M112.637 44.0076L112.887 45.1304C112.887 45.1304 119.321 44.3817 122.772 43.6336C126.223 42.8855 123.967 42.7292 123.967 42.7292C123.967 42.7292 124.871 41.8351 125.318 41.6794C125.776 41.5341 129.206 41.6794 129.206 41.6794L125.173 44.8293C125.173 44.8293 126.368 44.8293 128.166 44.8293C129.965 44.8293 131.305 44.985 131.305 44.985L132.657 44.5276L134.008 42.8855L135.36 41.9811C135.36 41.9811 139.995 40.0373 141.201 39.5799C142.158 39.2266 144.538 36.4927 145.463 35.3906C133.988 36.8254 122.969 39.7563 112.637 44.0076ZM110.631 44.6833L108.604 45.7331C109.3 45.4314 109.996 45.1097 110.714 44.808L110.631 44.6833ZM97.2948 55.6188L97.5338 51.3882L90.3406 55.8268L91.307 57.8643L89.3529 60.1098L89.5086 62.3656L92.6584 60.7132L95.7974 61.9083C95.7974 61.9083 99.6953 61.0142 100.142 60.8585C100.589 60.7132 100.589 55.4741 100.589 55.4741L97.2948 55.6188ZM127.263 61.4606L130.413 59.3611V55.9205L127.866 54.5691L128.458 52.6253L122.918 51.1181L123.822 47.0748L118.718 49.0186L112.138 56.0665L113.936 57.865L118.125 57.1163L120.818 60.4115C120.818 60.4115 119.768 67.1577 119.321 67.4594C118.874 67.7507 116.327 70.1519 115.735 70.5983C115.132 71.0453 113.032 72.2507 113.032 72.2507L108.084 72.5524L107.035 74.7979L113.936 74.4962L117.221 83.3419H121.275L119.768 78.8412L122.918 78.3942L125.017 74.6519L123.375 72.3961C123.375 72.3961 123.967 69.4025 124.124 68.7992C124.269 68.2068 126.515 68.4975 126.515 68.4975L127.564 72.5511L131.015 68.7985L132.356 65.3579L127.263 61.4606ZM127.263 47.0742L126.369 48.571L129.508 50.8165L131.909 47.5212L127.263 47.0742ZM103.147 72.3961L99.3943 72.6978L95.4963 76.8974L98.3445 79.1429L101.64 76.5964L102.991 78.0932L104.945 76.5964L103.147 72.3961ZM100.299 79.433L98.7916 81.6888H100.59L103.449 79.8903L100.299 79.433ZM137.605 115.409L132.511 116.905L130.713 115.107L131.015 112.259L126.815 114.057L123.073 120.793L125.619 123.797L129.964 120.648L129.362 124.088L131.908 124.847L133.114 121.989L134.61 124.692L139.402 119.744L137.605 115.409ZM192.894 71.2003V67.7494H188.102L187.655 69.7036L184.724 69.2152L181.356 68.6538L180.161 71.3457L184.018 73.3515L184.205 73.4452L183.956 73.7152L182.407 75.3993L183.592 75.867L189.6 78.2372L195.9 73.6009L192.894 71.2003ZM286.395 166.644L286.55 173.235L289.575 178.276C290.146 173.359 290.438 168.37 290.438 163.308C290.438 122.81 271.769 86.6888 242.57 63.051L242.342 65.8056L248.038 70.4523L251.032 79.8903L242.643 75.0983L241.147 71.0447C241.147 71.0447 242.643 69.5479 242.789 69.1008C242.945 68.6538 234.546 61.4606 234.546 61.4606L222.561 57.1156L221.209 61.7623L226.614 77.3438L223.465 83.3413L227.966 93.9751L231.251 94.7238L233.35 90.5241L240.242 101.314L243.09 99.9622L240.242 94.1308L241.448 89.4737L235.897 84.0893L234.848 71.9484L237.851 72.3954L241.448 85.2851L246.094 91.1269L251.333 87.8316L252.228 92.0313L249.691 93.081C249.691 93.081 252.228 97.873 252.383 98.3201C252.529 98.7671 250.138 100.42 250.138 100.42L249.992 105.971L238.454 107.02L235.304 96.8233L232.3 98.0184L234.546 107.02L231.698 107.769L230.503 112.706L220.17 120.347L223.767 123.195L224.816 133.382L212.821 132.935L212.218 141.022L211.771 145.222L217.021 146.874C217.021 146.874 217.021 148.225 217.468 148.673C217.925 149.12 222.862 149.275 222.862 149.275L224.359 148.069H226.916L229.91 143.724L228.413 140.429L233.797 137.435L233.953 133.683L237.851 133.537C237.851 133.537 240.096 131.729 240.543 131.583C240.99 131.438 246.385 135.637 246.385 135.637L250.138 139.525L251.635 142.216L253.131 145.366L253.433 147.622L255.377 146.427L254.483 142.82L256.582 141.926L256.427 140.43L253.88 138.787L249.691 133.538L246.24 129.64L247.892 127.696L250.439 128.746L258.827 137.134L259.731 143.267L260.324 147.768L261.073 150.471L263.016 148.371C263.016 148.371 264.513 147.769 264.513 147.176C264.513 146.574 262.122 143.268 262.122 143.268L263.016 140.43H265.116L266.02 142.374L268.12 139.38L266.768 135.638L267.818 127.395L270.511 127.842L270.812 131.585L272.309 131.73L272.454 127.395L275.157 126.491L276.207 127.998L274.554 131.283L279.502 138.632C279.502 138.632 280.25 140.576 279.803 141.023C279.356 141.47 278.909 142.218 278.452 142.072C278.005 141.927 276.206 141.178 276.206 141.178L274.855 139.827L272.007 140.274L270.365 141.927C270.365 141.927 269.013 142.676 268.421 142.977C267.818 143.268 266.914 144.474 266.914 144.474L266.768 146.272L267.963 150.315V151.51H270.219L271.706 153.007C271.706 153.007 273.504 153.61 273.951 153.766C274.409 153.912 276.051 151.667 276.051 151.667L277.1 153.611L275.458 163.205C275.458 163.205 272.308 163.35 271.862 163.35C271.416 163.35 267.964 165.003 267.964 165.003L261.966 159.161L259.877 159.764L258.972 164.701L258.525 166.053C258.525 166.053 254.482 163.049 254.025 163.049C253.578 163.049 252.081 159.161 252.081 159.161L245.043 155.564L246.842 153.163L246.093 148.069L242.185 148.974L223.765 152.414L221.209 151.364L215.522 157.363L212.976 157.81L212.674 164.701L206.084 169.649L201.281 177.144L198.59 181.779L198.745 197.964L208.028 210.105L228.713 209.803L232.601 211.902L235.449 212.495L232.3 221.195C232.3 221.195 234.545 231.538 235.595 232.879C236.645 234.22 224.212 248.605 224.212 248.605C224.212 248.605 222.716 254 222.716 254.458C222.716 254.905 222.716 255.653 222.716 255.653L213.423 269.135L215.668 268.989L228.714 264.489L232.903 262.254C232.903 262.254 237.851 255.051 238.298 254.905C238.745 254.75 246.988 247.265 246.988 247.265L251.78 245.009L254.773 240.519L259.877 229.885L273.058 217.297L277.101 211.008L279.502 203.202L274.253 205V185.978L271.862 172.642L272.454 168.598L274.554 168.453L276.207 169.503L277.257 187.173L276.955 198.265L279.356 201.414L286.695 182.974L284.449 174.741L284.741 167.101L286.395 166.644ZM224.661 107.914L222.114 101.314L218.372 99.2141L219.266 95.3265L215.223 94.5778L216.875 91.5739L213.268 92.0313L211.626 95.6275L213.424 100.263L214.921 100.118L219.121 104.619L218.819 107.311L216.875 107.02L216.418 111.656L219.266 112.55L216.127 114.359L217.322 117.8L221.958 114.359L226.459 114.65L227.966 109.11L224.661 107.914ZM214.474 103.414L209.827 102.062L208.486 105.212L210.274 107.914L208.632 110.305C208.632 110.305 209.526 111.21 209.973 111.657C210.42 112.104 214.62 110.305 214.62 110.305L214.474 103.414ZM242.727 135.086L241.698 136.042L242.176 137.892L243.756 138.235L242.727 135.086ZM243.683 140.221L241.219 139.4L241.968 143.028L242.176 144.608L241.833 145.086L243.548 145.637L244.847 143.912L243.683 140.221ZM252.311 146.728L249.089 146.583L248.205 147.955L251.084 149.047L251.833 150.492L252.789 151.043L252.311 146.728ZM102.524 181.633L98.8646 182.423L99.8626 185.947L96.422 185.719L95.632 188.161L101.952 187.881L102.805 186.155L106.255 186.727L106.765 184.222L102.524 181.633ZM90.8916 179.981L86.8063 176.603L81.5673 176.676L79.2598 178.911L80.3412 179.691L83.2831 177.83L89.3122 182.498L96.2037 182.934L97.1391 181.489L90.8916 179.981Z" stroke="#202020" stroke-width="0.646" stroke-miterlimit="10" stroke-linecap="round" stroke-linejoin="round"/>
<path d="M138.188 282.815L137.461 282.327L130.257 275.581L115.133 244.708L105.695 239.626L98.2 231.538L96.2458 229.885V225.083L93.2523 220.291L96.1005 212.204L94.4584 205.603L91.3085 204.251L90.4041 205.759L81.7141 203.357L77.3691 196.019L69.4278 194.667L67.0266 190.78L60.7378 192.266C60.7378 192.266 58.9394 189.127 58.035 188.379C57.1409 187.63 48.7526 170.697 48.7526 170.697L46.7984 164.398L44.7093 160.053L42.9108 160.354L49.5013 177.734L47.1001 176.539L41.113 160.209L40.9573 154.659L39.9062 150.169L41.715 132.332L46.7978 118.549L47.4005 108.517L51.1531 100.565L51.9018 98.476L53.4716 93.0186C62.723 78.8195 74.7076 66.5436 88.6786 56.9595L89.209 58.0093L84.864 65.5145L87.4105 66.4086L89.656 63.5603L96.6935 64.6101L99.3964 62.8116L101.943 60.1088L102.546 55.7741L108.232 53.0712L100.591 54.121L99.9991 50.223L108.606 45.7327C109.302 45.431 109.999 45.1093 110.716 44.8076L111.537 46.1797L104.198 51.5745L112.139 50.6701L110.788 54.267L103.896 58.0093L104.79 62.51L103.741 64.7554L109.738 59.059L114.083 61.9072L110.487 66.7096L106.444 69.2458L100.893 69.7032C100.893 69.7032 91.1534 80.1916 90.561 80.337C89.9583 80.4823 81.8711 88.7253 81.4137 88.7253C80.9667 88.7253 80.8213 94.5774 80.8213 94.5774C80.8213 94.5774 88.9086 101.76 90.2594 101.916C91.6108 102.061 90.1037 110.159 90.1037 110.159L94.1573 111.354L95.0514 101.614C95.0514 101.614 101.351 100.117 101.351 99.2131C101.351 98.319 100.301 91.5729 101.049 90.9805C101.798 90.3778 103.595 89.182 103.595 89.182C103.595 89.182 105.249 81.0844 105.841 80.939C106.444 80.7834 108.533 79.8893 109.583 80.0346C110.633 80.1903 114.386 84.0889 114.531 84.5353C114.687 84.9824 112.732 92.0302 112.732 92.0302C112.732 92.0302 114.687 93.527 115.279 93.527C115.882 93.527 122.327 86.6355 122.327 86.6355C122.327 86.6355 125.32 95.6271 125.175 96.6769C125.019 97.7266 123.969 99.9618 123.969 99.9618L130.258 103.267L131.308 108.662L125.923 112.55C125.923 112.55 123.969 114.504 120.975 114.504C117.971 114.504 110.789 115.855 110.789 115.855L101.798 121.988L104.646 123.64L112.431 117.799H114.531L113.034 120.937L114.988 125.438L119.624 122.143L122.025 124.388L115.279 127.694L112.431 131.727L110.03 130.687L112.431 127.247L110.331 126.197L107.639 127.538L105.695 129.191L102.847 131.281L102.098 134.877V136.084L98.7924 138.027L94.156 139.982C94.156 139.982 92.3576 147.175 92.5036 147.622C92.6593 148.069 92.9609 151.665 92.9609 151.665L82.6185 159.908L86.0591 172.486L83.9699 173.088L82.1714 169.045L82.3168 165.448L80.0713 162.444L77.9718 163.047L76.1733 161.852L71.3813 162.601V165.594L68.3774 164.399L66.1319 163.495L60.5918 168.297L61.4859 180.885L64.3341 187.028L68.9808 186.581L71.0803 184.482L71.683 180.293L76.7657 179.991L75.5706 191.072L82.4621 190.625L83.6682 198.868L86.6618 202.163L90.5598 200.968L94.0107 202.756L95.6528 199.315C95.6528 199.315 98.4907 199.617 98.6464 199.17C98.7917 198.713 99.9978 197.371 99.9978 197.371L102.243 197.216L101.942 203.058L104.197 203.505L103.896 199.762L106.442 198.713L108.833 200.064C108.833 200.064 110.632 200.064 111.234 200.22C111.837 200.365 113.937 202.465 113.937 202.465L116.484 201.114L122.627 205.001L125.922 207.704L131.609 207.257C131.609 207.257 141.65 213.993 141.047 214.149C140.455 214.294 139.997 218.047 139.997 218.047L148.636 221.446L158.188 225.199L159.03 225.531L164.58 228.234L164.726 230.48L157.387 240.375L156.784 250.562L153.562 252.391L146.753 256.248L143.448 268.087H138.947L141.504 271.985L140.996 273.673L139.643 274.293L138.915 278.544" stroke="#202020" stroke-width="0.646" stroke-miterlimit="10" stroke-linecap="round" stroke-linejoin="round"/>
<path d="M179.558 59.6622C179.382 59.9743 177.791 60.5356 175.91 61.1073C173.238 61.9077 169.985 62.7185 169.372 62.8121C168.322 62.9575 168.02 68.0512 167.729 68.6539C167.428 69.2463 161.275 70.7534 160.526 70.7534C159.777 70.7534 154.84 77.7909 154.84 77.7909C154.84 77.7909 155.141 80.6391 154.985 82.5933C154.84 84.5371 151.835 87.3853 150.64 88.4351C149.434 89.4745 145.401 85.5869 145.401 85.5869L143.447 81.2419L141.648 68.7993C141.648 68.7993 142.698 66.4084 143.748 65.5143C144.798 64.6099 145.702 64.0072 146.752 63.2585C147.791 62.5098 147.344 61.3147 147.49 60.5557C147.646 59.8076 146.149 58.7572 146.149 58.7572C146.149 58.7572 143.904 58.4658 143.904 57.2604C143.904 56.0653 146.45 54.8696 146.45 54.8696C146.45 54.8696 146.003 53.5181 144.797 53.3728C143.602 53.2171 148.092 44.2358 147.791 43.4774C147.489 42.7286 144.797 41.9806 144.35 40.7848C143.903 39.5787 147.791 38.3836 147.791 38.3836C147.791 38.3836 148.539 37.7809 148.238 37.1885C147.946 36.5858 153.487 34.7874 153.487 34.7874C153.487 34.7874 161.574 34.4967 163.227 34.943C164.879 35.3901 166.823 35.3901 168.019 36.2841C169.214 37.1885 173.268 39.5794 176.262 42.2816C177.135 43.0717 177.81 44.8075 178.33 46.8966C179.589 51.9806 179.87 59.1325 179.558 59.6622Z" stroke="#202020" stroke-width="0.646" stroke-miterlimit="10" stroke-linecap="round" stroke-linejoin="round"/>
<path d="M155.459 284.896C156.311 284.938 157.165 284.971 158.021 284.996" stroke="#202020" stroke-width="0.646" stroke-miterlimit="10" stroke-linecap="round" stroke-linejoin="round"/>
<path d="M74.6041 151.383C74.6041 151.383 74.3709 150.637 73.2139 150.324C72.0569 150.012 48.7622 144.343 48.7622 144.343C48.7622 144.343 45.9488 141.66 42.5334 141.668C39.1174 141.676 32.0786 151.196 30.5979 168.173C29.1173 185.152 33.8195 190.951 34.2304 191.497C34.6419 192.042 63.7474 193.199 63.7474 193.199C63.7474 193.199 58.2823 180.8 61.7157 171.301C65.1492 161.801 67.8682 156.329 69.1486 155.496C70.4296 154.662 74.6041 151.383 74.6041 151.383Z" fill="#202020" stroke="#202020" stroke-width="0.646" stroke-miterlimit="10"/>
<path d="M74.4242 154.81L81.2557 154.792C81.2557 154.792 80.5121 151.799 78.2207 151.553C75.9287 151.306 68.0747 150.055 64.2013 151.987C60.3278 153.92 54.789 166.389 53.7923 175.367C52.7955 184.346 55.4499 190.835 55.4499 190.835C55.4499 190.835 58.4189 192.939 63.7484 193.2C69.0779 193.46 76.0218 192.107 76.0218 192.107C76.0218 192.107 72.7336 184.517 72.3712 178.274C72.0082 172.032 73.3641 159.427 73.3641 159.427L74.4242 154.81Z" fill="white" stroke="#202020" stroke-width="0.646" stroke-miterlimit="10"/>
<path d="M74.425 154.809C74.425 154.809 80.9115 155.381 96.0111 153.934C111.111 152.488 121.536 152.261 123.595 151.762C125.654 151.263 131.049 152.658 134.241 155.319C137.432 157.981 150.178 165.022 150.178 165.022C150.178 165.022 116.558 190.7 115.089 191.544C113.62 192.389 108.812 194.566 108.812 194.566L73.4547 190.357C73.4547 190.357 67.7538 180.44 68.841 169.748C69.9269 159.056 74.425 154.809 74.425 154.809Z" fill="white" stroke="#202020" stroke-width="0.646" stroke-miterlimit="10"/>
<path d="M176.202 140.58L171.047 137.621C171.047 137.621 149.258 157.407 141.354 164.263C133.449 171.118 124.621 183.059 124.621 183.059L177.603 161.39L176.202 140.58Z" fill="#0F2289" stroke="#202020" stroke-width="0.646" stroke-miterlimit="10"/>
<path d="M193.341 151.851L174.946 138.736C174.946 138.736 149.988 157.819 141.161 167.532C132.334 177.245 126.465 181.803 126.465 181.803C126.465 181.803 146.502 176.997 164.822 169.032C183.143 161.068 195.843 155.347 195.843 155.347L193.341 151.851Z" fill="#0F2289" stroke="#202020" stroke-width="0.646" stroke-miterlimit="10"/>
<path opacity="0.58" d="M193.461 153.778L192.141 152.925L174.667 141.63C174.667 141.63 153.25 158.166 146.38 165.091C139.51 172.017 133.766 179.064 133.766 179.064L193.461 153.778Z" fill="white"/>
<path d="M167.001 164.168C168.401 166.767 165.992 170.783 161.62 173.139C157.247 175.496 152.568 175.3 151.168 172.702C149.767 170.104 152.177 166.088 156.549 163.731C160.921 161.374 165.601 161.57 167.001 164.168Z" fill="#0F2289" stroke="#202020" stroke-width="0.646" stroke-miterlimit="10"/>
<path d="M203.93 159.286L194.217 150.458C194.217 150.458 165.059 166.527 150.775 171.382C136.491 176.237 122.441 181.845 122.441 181.845C122.441 181.845 136.339 183.529 164.05 178.852C191.762 174.176 205.431 165.332 205.431 165.332L203.93 159.286Z" fill="#0F2289" stroke="#202020" stroke-width="0.646" stroke-miterlimit="10"/>
<path opacity="0.58" d="M201.809 159.446L193.462 153.777C193.462 153.777 169.895 165.403 157.866 170.204C145.838 175.005 129.053 181.388 129.053 181.388C129.053 181.388 150.35 178.845 166.063 173.27C181.776 167.695 204.169 161.546 204.169 161.546L201.809 159.446Z" fill="white"/>
<path d="M211.743 168.415L203.649 157.769C203.649 157.769 170.809 169.835 150.085 176.022C129.362 182.209 122.44 181.845 122.44 181.845L119.73 184.685C119.73 184.685 141.424 188.6 168.576 180.89C195.727 173.179 211.1 170.561 211.1 170.561L211.743 168.415Z" fill="#0F2289" stroke="#202020" stroke-width="0.646" stroke-miterlimit="10"/>
<path opacity="0.58" d="M210.033 169.411L204.168 161.547C204.168 161.547 172.852 171.385 158.737 175.562C144.621 179.739 126.559 183.398 126.559 183.398C126.559 183.398 138.351 187.375 151.592 184.182C164.833 180.988 210.033 169.411 210.033 169.411Z" fill="white"/>
<path d="M217.49 178.239L212.048 167.056C212.048 167.056 156.139 181.229 144.329 182.49C132.519 183.751 121.396 183.631 121.396 183.631L115.969 187.128C115.969 187.128 126.344 192.927 156.749 191.735C187.155 190.544 217.667 181.295 217.667 181.295L217.49 178.239Z" fill="#0F2289" stroke="#202020" stroke-width="0.646" stroke-miterlimit="10"/>
<path opacity="0.58" d="M216.378 179.113L211.102 170.561C211.102 170.561 172.737 179.037 160.93 181.216C149.122 183.394 139.479 184.327 136.506 184.499C133.532 184.672 127.213 185.039 127.213 185.039L128.861 187.741C128.861 187.741 138.227 191.672 157.184 190.571C176.141 189.47 217.668 181.296 217.668 181.296L216.378 179.113Z" fill="white"/>
<path d="M171.334 186.531C171.453 188.588 167.531 190.489 162.572 190.777C157.613 191.066 153.497 189.632 153.378 187.574C153.258 185.517 157.181 183.615 162.139 183.328C167.098 183.04 171.214 184.474 171.334 186.531Z" fill="#0F2289" stroke="#202020" stroke-width="0.646" stroke-miterlimit="10"/>
<path d="M218.665 185.262L218.761 177.016C218.761 177.016 183.271 186.361 160.921 187.659C138.572 188.958 117.675 185.572 117.675 185.572L112.695 188.928C112.695 188.928 127.488 196.118 160.388 194.974C193.287 193.829 215.761 191.374 215.761 191.374L218.665 185.262Z" fill="#0F2289" stroke="#202020" stroke-width="0.646" stroke-miterlimit="10"/>
<path opacity="0.58" d="M217.607 186.858L216.377 179.113C216.377 179.113 187.071 186.71 175.498 188.389C163.926 190.067 139.681 190.307 136.124 189.469C132.568 188.631 131.053 188.757 131.053 188.757L133.291 192.651C133.291 192.651 147.75 195.634 167.166 193.903C186.582 192.172 215.79 189.267 215.79 189.267L217.607 186.858Z" fill="white"/>
<path d="M210.24 198.593C210.24 198.593 213.465 198.023 216.064 193.271C218.663 188.521 220.385 185.162 220.385 185.162C220.385 185.162 178.752 191.031 163.672 192.099C148.592 193.167 134.291 191.123 130.797 190.367C127.303 189.612 115.971 187.127 115.971 187.127L106.369 192.17C106.369 192.17 116.846 200.953 132.834 202.324C148.822 203.695 187.483 206.049 191.495 205.815C195.505 205.583 210.24 198.593 210.24 198.593Z" fill="#0F2289" stroke="#202020" stroke-width="0.646" stroke-miterlimit="10"/>
<path opacity="0.58" d="M210.24 198.593C210.24 198.593 215.097 193.136 215.762 191.372C216.426 189.608 217.608 186.856 217.608 186.856C217.608 186.856 187.728 190.509 176.739 192.681C165.749 194.853 144.255 194.377 139.985 193.475C135.716 192.573 116.303 188.334 116.303 188.334L108.547 193.384C108.547 193.384 121.609 200.484 137.002 201.506C152.394 202.528 179.954 205.143 180.719 205.099C181.483 205.056 191.493 205.815 191.493 205.815L210.24 198.593Z" fill="white"/>
<path d="M168.642 198.344C168.762 200.402 164.839 202.303 159.881 202.591C154.923 202.879 150.806 201.445 150.686 199.387C150.567 197.331 154.489 195.429 159.448 195.141C164.407 194.853 168.523 196.287 168.642 198.344Z" fill="#0F2289" stroke="#202020" stroke-width="0.646" stroke-miterlimit="10"/>
<path d="M141.698 211.824C141.698 211.824 170.453 213.171 176.846 214.333C183.238 215.495 189.54 218.387 189.54 218.387L215.353 197.529C215.353 197.529 193.804 196.098 181.972 196.977C170.139 197.856 151.846 199.685 148.352 198.93C144.859 198.175 128.616 192.41 128.616 192.41L113.674 205.736L117.501 210.193L120.645 213.573L141.698 211.824Z" fill="#0F2289" stroke="#202020" stroke-width="0.646" stroke-miterlimit="10"/>
<path opacity="0.58" d="M210.24 198.593L189.858 213.961C189.858 213.961 174.95 211.377 164.546 210.448C154.142 209.519 137.288 209.732 134.613 209.887C131.939 210.043 130.635 210.694 129.074 210.209C127.513 209.725 115.852 206.953 115.852 206.953L128.906 194.119C128.906 194.119 147.654 200.122 148.621 200.257C149.587 200.392 182.016 197.741 187.78 197.982C193.543 198.222 210.24 198.593 210.24 198.593Z" fill="white"/>
<path d="M156.174 208.248C161.132 207.96 165.055 206.058 164.935 204.001C164.816 201.944 160.7 200.51 155.741 200.798C150.783 201.086 146.861 202.987 146.98 205.044C147.1 207.102 151.216 208.536 156.174 208.248Z" fill="#0F2289" stroke="#202020" stroke-width="0.646" stroke-miterlimit="10"/>
<path d="M114.932 159.478C114.932 159.478 118.099 164.987 118.966 166.835C119.832 168.682 120.976 172.033 122.287 174.993C123.598 177.954 130.979 187.394 132.569 188.63C134.16 189.867 137.195 193.106 136.559 195.231C135.923 197.356 133.741 199.001 131.671 199.311C129.601 199.621 124.552 197.637 123.318 196C122.084 194.364 116.614 188.418 115.97 187.128C115.325 185.836 114.502 184.746 114.502 184.746L111.3 181.895C111.3 181.895 105.146 183.771 101.319 183.234C97.492 182.697 94.7097 183.808 85.2891 178.472" fill="white"/>
<path d="M114.932 159.478C114.932 159.478 118.099 164.987 118.966 166.835C119.832 168.682 120.976 172.033 122.287 174.993C123.598 177.954 130.979 187.394 132.569 188.63C134.16 189.867 137.195 193.106 136.559 195.231C135.923 197.356 133.741 199.001 131.671 199.311C129.601 199.621 124.552 197.637 123.318 196C122.084 194.364 116.614 188.418 115.97 187.128C115.325 185.836 114.502 184.746 114.502 184.746L111.3 181.895C111.3 181.895 105.146 183.771 101.319 183.234C97.492 182.697 94.7097 183.808 85.2891 178.472" stroke="#202020" stroke-width="0.646" stroke-miterlimit="10"/>
<path d="M105.029 175.237C105.029 175.237 107.341 179.089 109.32 180.492" stroke="#202020" stroke-width="0.646" stroke-miterlimit="10"/>
<path d="M123.713 165.882C124.332 164.509 124.91 162.704 125.234 160.397" stroke="#202020" stroke-width="0.646" stroke-miterlimit="10"/>
<path d="M121.211 169.551C121.211 169.551 121.924 168.983 122.77 167.647" stroke="#202020" stroke-width="0.646" stroke-miterlimit="10"/>
<path d="M125.537 172.147C125.537 172.147 129.575 173.052 133.449 171.118L134.043 171.229" stroke="#202020" stroke-width="0.646" stroke-miterlimit="10"/>
<path d="M132.898 161.661C132.898 161.661 132.436 170.039 133.448 171.119" stroke="#202020" stroke-width="0.646" stroke-miterlimit="10"/>
<path d="M64.5849 191.252C64.5849 191.252 89.5121 185.818 91.2143 185.719C92.9165 185.62 105.243 188.7 107.156 188.969C109.07 189.237 111.249 190.819 112.283 192.277C113.317 193.735 124.294 199.74 126.186 199.63C128.077 199.52 136.021 199.058 137.401 199.927C138.78 200.796 140.214 202.611 137.886 205.024C135.559 207.436 127.212 210.768 124.397 211.311C121.581 211.854 121.581 211.854 121.581 211.854L127.278 211.903L141.698 211.824C141.698 211.824 138.568 216.751 137.877 217.929C137.186 219.108 138.275 221.512 133.801 222.911C129.328 224.31 125.032 225.509 125.032 225.509C125.032 225.509 123.083 227.9 120.901 229.545C118.718 231.19 118.362 231.59 117.86 232.758C117.359 233.926 112.971 240.065 110.322 240.219C107.674 240.373 102.446 238.589 100.834 236.974C99.2215 235.36 92.6478 233.274 92.6478 233.274C92.6478 233.274 70.1011 224.146 67.187 222.986C64.2729 221.827 60.0894 221.69 60.0894 221.69L57.4414 221.844L62.0816 190.638L64.5849 191.252Z" fill="white" stroke="#202020" stroke-width="0.646" stroke-miterlimit="10"/>
<path d="M60.1249 203.393L60.09 221.691L55.6895 221.968L60.1249 203.393Z" fill="#202020" stroke="#202020" stroke-width="0.646" stroke-miterlimit="10"/>
<path d="M122.182 211.947C122.182 211.947 128.702 212.858 130.967 216.054C133.231 219.249 132.757 223.019 132.757 223.019C132.757 223.019 136.206 222.897 137.042 220.413C137.878 217.93 137.878 217.93 137.878 217.93L141.699 211.824L122.182 211.947Z" fill="#202020" stroke="#202020" stroke-width="0.646" stroke-miterlimit="10"/>
<path d="M108.014 203.723C108.014 203.723 110.939 205.071 111.784 206.541C112.628 208.01 114.251 209.813 114.251 209.813L117.5 210.194L121.582 211.855" stroke="#202020" stroke-width="0.646" stroke-miterlimit="10"/>
<path d="M122.974 226.009C122.974 226.009 118.933 228.331 118.388 228.743C117.843 229.154 113.992 231.466 111.7 231.219C109.408 230.973 106.816 228.845 106.816 228.845C106.816 228.845 109.855 233.888 112.024 234.071C114.194 234.253 122.974 226.009 122.974 226.009Z" fill="#202020" stroke="#202020" stroke-width="0.646" stroke-miterlimit="10"/>
<path d="M47.2973 187.702C47.2973 187.702 62.6301 187.001 62.4957 187.958C62.3613 188.914 62.0823 190.638 62.0823 190.638L57.442 221.845C57.442 221.845 55.3742 235.251 54.7954 235.094C54.2172 234.938 41.5898 233.204 41.5898 233.204L47.2973 187.702Z" fill="white" stroke="#202020" stroke-width="0.646" stroke-miterlimit="10"/>
<path d="M45.8761 182.849C45.8761 182.849 47.7411 188.814 48.2688 197.893C48.7966 206.973 45.199 226.731 43.9607 231.547C42.7223 236.364 38.677 245.14 38.677 245.14L6.66774 243.014C6.66774 243.014 -6.0604 207.787 12.589 178.329L41.772 180.809C41.772 180.809 45.3877 180.979 45.8761 182.849Z" fill="#202020" stroke="#202020" stroke-width="0.646" stroke-miterlimit="10"/>
</svg>
