<svg width="324" height="323" viewBox="0 0 324 323" fill="none" xmlns="http://www.w3.org/2000/svg">
<path opacity="0.7" d="M44.384 107.938C44.384 107.938 26.3755 154.442 51.6819 201.287C76.9883 248.132 129.124 272.865 170.849 294.019C212.574 315.173 255.902 304.871 276.492 270.222C297.082 235.572 268.84 210.836 268.806 161.424C268.773 112.011 276.201 98.9282 249.45 57.1824C222.699 15.436 157.034 6.19686 107.395 37.159C57.7562 68.1211 44.384 107.938 44.384 107.938Z" fill="#F3F3F3"/>
<path d="M85.8007 276.212C101.046 292.307 138.475 286.412 154.688 276.212C207.31 243.101 299.55 187.989 303.725 108.143C305.499 74.2048 275.574 56.3849 263.07 51.1568C233.043 38.6018 200.1 34.833 167.586 33.3788C133.625 31.8601 97.1961 33.0429 66.6093 49.6122C55.0239 55.8881 44.0942 63.9372 36.6123 74.925C29.0121 86.0866 24.6393 99.3787 23.4791 112.796C21.6083 134.437 27.4307 156.137 36.235 175.995C45.0393 195.853 56.781 214.24 67.5576 233.101C74.5887 245.406 72.9562 262.652 85.8007 276.212Z" fill="#F08523"/>
<path opacity="0.3" d="M85.8007 276.212C101.046 292.307 138.475 286.412 154.688 276.212C207.31 243.101 299.55 187.989 303.725 108.143C305.499 74.2048 275.574 56.3849 263.07 51.1568C233.043 38.6018 200.1 34.833 167.586 33.3788C133.625 31.8601 97.1961 33.0429 66.6093 49.6122C55.0239 55.8881 44.0942 63.9372 36.6123 74.925C29.0121 86.0866 24.6393 99.3787 23.4791 112.796C21.6083 134.437 27.4307 156.137 36.235 175.995C45.0393 195.853 56.781 214.24 67.5576 233.101C74.5887 245.406 72.9562 262.652 85.8007 276.212Z" fill="white"/>
<path d="M84.6299 113.104L53.7511 103.746C52.5528 103.383 51.8752 102.117 52.2389 100.918L57.7486 82.7365C58.1116 81.5382 59.3778 80.8605 60.5768 81.2242L91.4556 90.5815C92.6539 90.9446 93.3316 92.2107 92.9679 93.4091L87.4581 111.591C87.0944 112.789 85.8283 113.467 84.6299 113.104Z" stroke="#202020" stroke-width="0.248" stroke-miterlimit="10"/>
<path d="M56.8164 85.8125L92.0357 96.4844" stroke="#202020" stroke-width="0.248" stroke-miterlimit="10"/>
<path d="M55.7441 89.3496L90.9634 100.022" stroke="#202020" stroke-width="0.248" stroke-miterlimit="10"/>
<path d="M80.2516 106.63C80.0623 107.255 80.1515 107.896 80.4499 108.425C79.948 108.678 79.3408 108.744 78.7535 108.566C77.5416 108.199 76.8549 106.924 77.2219 105.713C77.5888 104.501 78.8698 103.816 80.0817 104.183C80.6689 104.361 81.136 104.759 81.4131 105.248C80.8705 105.521 80.4402 106.005 80.2516 106.63Z" stroke="#202020" stroke-width="0.248" stroke-miterlimit="10"/>
<path d="M84.6371 107.956C84.2702 109.167 82.9911 109.852 81.7798 109.485C80.5686 109.118 79.8845 107.839 80.2514 106.627C80.6183 105.416 81.8974 104.732 83.1087 105.099C84.3193 105.467 85.0034 106.746 84.6371 107.956Z" stroke="#202020" stroke-width="0.248" stroke-miterlimit="10"/>
<path d="M296.467 154.007L270.855 146.246C269.656 145.883 268.979 144.617 269.342 143.418L273.831 128.604C274.194 127.405 275.461 126.728 276.659 127.091L302.272 134.852C303.47 135.215 304.148 136.482 303.784 137.681L299.295 152.495C298.932 153.693 297.666 154.37 296.467 154.007Z" stroke="#202020" stroke-width="0.248" stroke-miterlimit="10"/>
<path d="M273.137 130.896L303.09 139.972" stroke="#202020" stroke-width="0.248" stroke-miterlimit="10"/>
<path d="M272.225 133.903L302.178 142.98" stroke="#202020" stroke-width="0.248" stroke-miterlimit="10"/>
<path d="M293.067 148.6C292.906 149.131 292.981 149.676 293.235 150.126C292.808 150.341 292.292 150.397 291.793 150.246C290.762 149.934 290.178 148.849 290.491 147.819C290.803 146.788 291.892 146.206 292.923 146.518C293.422 146.669 293.819 147.007 294.055 147.423C293.593 147.657 293.228 148.069 293.067 148.6Z" stroke="#202020" stroke-width="0.248" stroke-miterlimit="10"/>
<path d="M296.796 149.728C296.484 150.757 295.396 151.339 294.366 151.027C293.337 150.715 292.755 149.628 293.067 148.598C293.379 147.568 294.467 146.986 295.496 147.298C296.526 147.61 297.108 148.698 296.796 149.728Z" stroke="#202020" stroke-width="0.248" stroke-miterlimit="10"/>
<path d="M261.268 64.0905L223.875 81.2119L232.781 100.662L270.174 83.541L261.268 64.0905Z" stroke="#202020" stroke-width="0.248" stroke-miterlimit="10"/>
<path d="M266.966 80.7197L261.307 68.361C260.206 68.8656 258.905 68.3811 258.4 67.2803L228.176 81.1195C228.681 82.221 228.196 83.522 227.096 84.0265L232.755 96.3845C233.856 95.88 235.157 96.3645 235.662 97.4653L265.885 83.626C265.381 82.5259 265.865 81.2242 266.966 80.7197Z" stroke="#202020" stroke-width="0.248" stroke-miterlimit="10"/>
<path d="M250.453 86.8355C252.915 84.9439 253.378 81.4144 251.486 78.9521C249.595 76.4898 246.065 76.0272 243.603 77.9187C241.141 79.8103 240.678 83.3398 242.57 85.8021C244.461 88.2644 247.991 88.727 250.453 86.8355Z" stroke="#202020" stroke-width="0.248" stroke-miterlimit="10"/>
<path d="M248.556 85.1042L248.977 86.0221L248.578 86.205L248.161 85.2948C247.36 85.6132 246.494 85.6617 245.919 85.442L245.943 84.8807C246.474 85.0719 247.238 85.0512 247.927 84.7838L246.965 82.6836C245.988 82.8703 244.969 83.0086 244.487 81.9543C244.136 81.1875 244.383 80.2727 245.561 79.6171L245.14 78.6984L245.54 78.5156L245.956 79.4258C246.566 79.1758 247.245 79.077 247.804 79.1791L247.82 79.7417C247.241 79.659 246.66 79.7417 246.186 79.9291L247.155 82.0454C248.156 81.8477 249.224 81.6681 249.713 82.7385C250.069 83.5131 249.794 84.4511 248.556 85.1042ZM246.71 82.1248L245.795 80.1287C245.006 80.577 244.832 81.1687 245.062 81.672C245.341 82.2786 245.978 82.2566 246.71 82.1248ZM249.146 83.0376C248.857 82.4071 248.176 82.4582 247.412 82.6048L248.326 84.6009C249.175 84.1352 249.38 83.5486 249.146 83.0376Z" fill="#202020"/>
<path d="M54.1184 152.357L25.4727 154.833L26.7603 169.733L55.4061 167.258L54.1184 152.357Z" stroke="#202020" stroke-width="0.248" stroke-miterlimit="10"/>
<path d="M53.9577 164.642L53.1392 155.175C52.2955 155.248 51.5526 154.623 51.4796 153.779L28.327 155.781C28.4 156.625 27.7753 157.368 26.9316 157.441L27.7501 166.908C28.5938 166.835 29.3367 167.46 29.4097 168.303L52.5623 166.301C52.4893 165.458 53.1147 164.715 53.9577 164.642Z" stroke="#202020" stroke-width="0.248" stroke-miterlimit="10"/>
<path d="M44.3607 160.703C44.5474 162.866 42.9459 164.77 40.7831 164.957C38.6203 165.144 36.7153 163.543 36.5286 161.38C36.3412 159.217 37.9433 157.312 40.1061 157.125C42.2689 156.938 44.174 158.54 44.3607 160.703Z" stroke="#202020" stroke-width="0.248" stroke-miterlimit="10"/>
<path d="M40.8071 163.197L40.8678 163.901L40.5623 163.927L40.5022 163.23C39.9001 163.252 39.3181 163.08 38.9918 162.8L39.1391 162.436C39.4441 162.688 39.9518 162.853 40.4686 162.839L40.3297 161.23C39.6424 161.123 38.9395 160.974 38.8698 160.167C38.8187 159.58 39.1973 159.036 40.1269 158.881L40.0661 158.178L40.3717 158.151L40.4318 158.848C40.8924 158.827 41.3627 158.922 41.7063 159.12L41.5849 159.494C41.2231 159.304 40.822 159.222 40.4654 159.233L40.6056 160.855C41.311 160.96 42.0558 161.093 42.1269 161.913C42.1773 162.506 41.7748 163.058 40.8071 163.197ZM40.2916 160.802L40.1592 159.273C39.5338 159.383 39.28 159.731 39.3136 160.117C39.3543 160.581 39.7793 160.717 40.2916 160.802ZM41.6811 161.976C41.6392 161.492 41.1786 161.366 40.6417 161.283L40.7742 162.812C41.4421 162.705 41.7147 162.367 41.6811 161.976Z" fill="#202020"/>
<path d="M287.538 72.8146C290.643 72.8146 293.16 70.2975 293.16 67.1925C293.16 64.0874 290.643 61.5703 287.538 61.5703C284.433 61.5703 281.916 64.0874 281.916 67.1925C281.916 70.2975 284.433 72.8146 287.538 72.8146Z" stroke="#202020" stroke-width="0.248" stroke-miterlimit="10"/>
<path d="M287.789 70.3106V71.3203H287.349V70.319C286.488 70.2751 285.681 69.9586 285.25 69.5199L285.505 69.0193C285.909 69.4146 286.612 69.7131 287.349 69.757V67.4469C286.383 67.2098 285.399 66.9114 285.399 65.7518C285.399 64.9088 286.005 64.1794 287.349 64.0741V63.0645H287.789V64.0658C288.448 64.0922 289.106 64.2854 289.572 64.6103L289.352 65.1284C288.86 64.8125 288.298 64.6459 287.789 64.6194V66.9469C288.781 67.184 289.826 67.465 289.826 68.642C289.826 69.4941 289.185 70.2318 287.789 70.3106ZM287.349 66.8326V64.6368C286.445 64.7163 286.041 65.1814 286.041 65.735C286.041 66.4023 286.629 66.6478 287.349 66.8326ZM289.185 68.6769C289.185 67.9831 288.544 67.746 287.789 67.5613V69.757C288.755 69.6866 289.185 69.2389 289.185 68.6769Z" fill="#202020"/>
<path d="M250.518 142.366C253.54 141.654 255.413 138.627 254.701 135.605C253.988 132.582 250.961 130.71 247.939 131.422C244.917 132.134 243.044 135.162 243.757 138.184C244.469 141.206 247.496 143.079 250.518 142.366Z" stroke="#202020" stroke-width="0.248" stroke-miterlimit="10"/>
<path d="M247.816 139.688L247.287 140.548L246.913 140.318L247.437 139.466C246.726 138.977 246.203 138.285 246.066 137.685L246.546 137.393C246.683 137.941 247.125 138.563 247.731 138.987L248.94 137.019C248.241 136.311 247.56 135.542 248.167 134.554C248.608 133.836 249.506 133.532 250.706 134.147L251.235 133.286L251.609 133.516L251.085 134.369C251.632 134.736 252.092 135.245 252.318 135.767L251.86 136.093C251.606 135.566 251.215 135.13 250.795 134.84L249.576 136.823C250.297 137.545 251.041 138.331 250.424 139.334C249.979 140.059 249.046 140.352 247.816 139.688ZM249.263 136.495L250.413 134.625C249.601 134.218 249.012 134.403 248.723 134.875C248.373 135.443 248.746 135.961 249.263 136.495ZM249.86 139.028C250.223 138.437 249.802 137.899 249.255 137.346L248.105 139.217C248.965 139.663 249.566 139.506 249.86 139.028Z" fill="#202020"/>
<path d="M168.577 28.4161C169.868 31.2404 168.624 34.5757 165.8 35.8664C162.976 37.1571 159.641 35.9136 158.35 33.0892C157.059 30.2649 158.303 26.929 161.127 25.6389C163.951 24.3482 167.287 25.5918 168.577 28.4161Z" stroke="#202020" stroke-width="0.248" stroke-miterlimit="10"/>
<path d="M164.988 33.484L165.408 34.4027L165.009 34.5855L164.593 33.6746C163.791 33.9924 162.926 34.0403 162.351 33.82L162.375 33.2586C162.907 33.4505 163.67 33.4298 164.36 33.163L163.4 31.0622C162.422 31.2482 161.404 31.3852 160.922 30.3309C160.572 29.5641 160.82 28.6487 161.998 27.995L161.578 27.0764L161.977 26.8936L162.393 27.8044C163.003 27.5551 163.683 27.4569 164.241 27.5589L164.257 28.121C163.678 28.0383 163.097 28.1197 162.623 28.3076L163.59 30.4246C164.592 30.2282 165.659 30.0493 166.148 31.1197C166.502 31.8942 166.225 32.8316 164.988 33.484ZM163.143 30.5028L162.23 28.506C161.44 28.9543 161.266 29.5454 161.496 30.0486C161.774 30.6559 162.411 30.6345 163.143 30.5028ZM165.579 31.4175C165.291 30.7863 164.609 30.8374 163.845 30.9834L164.758 32.9802C165.607 32.515 165.813 31.9291 165.579 31.4175Z" fill="#202020"/>
<path d="M149.648 256.029C151.586 260.27 149.719 265.279 145.477 267.217C141.236 269.155 136.227 267.287 134.289 263.046C132.351 258.805 134.219 253.796 138.46 251.858C142.701 249.921 147.71 251.788 149.648 256.029Z" stroke="#202020" stroke-width="0.248" stroke-miterlimit="10"/>
<path d="M144.256 263.64L144.887 265.019L144.287 265.293L143.663 263.925C142.459 264.403 141.159 264.475 140.296 264.144L140.332 263.301C141.13 263.589 142.276 263.558 143.312 263.157L141.871 260.002C140.402 260.281 138.873 260.487 138.15 258.904C137.623 257.752 137.996 256.378 139.766 255.396L139.135 254.017L139.735 253.743L140.36 255.111C141.276 254.736 142.296 254.589 143.135 254.742L143.158 255.586C142.289 255.462 141.417 255.584 140.705 255.866L142.157 259.045C143.661 258.75 145.264 258.481 145.998 260.088C146.53 261.252 146.113 262.661 144.256 263.64ZM141.486 259.163L140.115 256.164C138.929 256.837 138.667 257.725 139.013 258.481C139.429 259.392 140.387 259.361 141.486 259.163ZM145.143 260.537C144.71 259.59 143.687 259.666 142.54 259.885L143.911 262.884C145.186 262.185 145.494 261.305 145.143 260.537Z" fill="#202020"/>
<path d="M28.7006 124.824C25.198 127.902 19.8633 127.557 16.7858 124.054C13.7082 120.552 14.0532 115.217 17.5558 112.139C21.0584 109.062 26.3931 109.407 29.4706 112.909C32.5488 116.412 32.2039 121.747 28.7006 124.824Z" stroke="#202020" stroke-width="0.248" stroke-miterlimit="10"/>
<path d="M19.8601 121.854L18.7206 122.856L18.2852 122.36L19.4144 121.368C18.6101 120.353 18.167 119.128 18.2354 118.207L19.0526 117.998C19.0068 118.845 19.3666 119.935 20.0488 120.811L22.6547 118.521C21.9641 117.195 21.3265 115.79 22.634 114.641C23.585 113.805 25.0087 113.767 26.459 115.179L27.5986 114.177L28.034 114.673L26.9048 115.665C27.5275 116.435 27.9629 117.369 28.0572 118.216L27.2555 118.482C27.1244 117.613 26.7555 116.814 26.2807 116.214L23.6547 118.52C24.3705 119.875 25.0895 121.333 23.762 122.499C22.8007 123.343 21.333 123.351 19.8601 121.854ZM23.3485 117.912L25.8253 115.736C24.8395 114.794 23.9138 114.798 23.2891 115.347C22.5365 116.009 22.8427 116.916 23.3485 117.912ZM23.0869 121.81C23.8692 121.123 23.5016 120.164 22.9616 119.13L20.4848 121.306C21.521 122.326 22.4525 122.367 23.0869 121.81Z" fill="#202020"/>
<path d="M66.0118 193.237C67.453 194.967 67.2191 197.537 65.4892 198.979C63.7592 200.42 61.1887 200.186 59.7475 198.456C58.3063 196.726 58.5401 194.156 60.2701 192.714C62.0001 191.273 64.5706 191.507 66.0118 193.237Z" stroke="#202020" stroke-width="0.248" stroke-miterlimit="10"/>
<path d="M64.4672 197.468L64.9362 198.03L64.6913 198.234L64.2262 197.676C63.7262 198.051 63.1293 198.25 62.6855 198.205L62.5951 197.808C63.0033 197.841 63.5337 197.681 63.9652 197.363L62.8929 196.076C62.2443 196.393 61.5576 196.683 61.0195 196.037C60.628 195.567 60.6273 194.88 61.327 194.197L60.858 193.634L61.1028 193.431L61.5673 193.988C61.9465 193.697 62.4032 193.499 62.8134 193.464L62.9316 193.854C62.5111 193.907 62.1203 194.075 61.8244 194.296L62.9045 195.593C63.5673 195.265 64.2805 194.936 64.8263 195.592C65.223 196.067 65.2081 196.776 64.4672 197.468ZM62.608 195.734L61.5886 194.51C61.1215 194.974 61.1119 195.421 61.369 195.729C61.679 196.101 62.1209 195.965 62.608 195.734ZM64.4866 195.909C64.1648 195.523 63.6971 195.688 63.1913 195.936L64.2107 197.159C64.7159 196.672 64.7475 196.223 64.4866 195.909Z" fill="#202020"/>
<path d="M192.74 277.243C194.182 278.973 193.948 281.543 192.218 282.984C190.488 284.425 187.917 284.192 186.476 282.462C185.035 280.732 185.269 278.161 186.999 276.72C188.729 275.279 191.299 275.513 192.74 277.243Z" stroke="#202020" stroke-width="0.248" stroke-miterlimit="10"/>
<path d="M191.195 281.473L191.664 282.036L191.419 282.239L190.955 281.682C190.455 282.057 189.858 282.255 189.414 282.211L189.324 281.813C189.732 281.846 190.262 281.686 190.694 281.368L189.621 280.082C188.973 280.398 188.287 280.688 187.748 280.042C187.356 279.573 187.356 278.885 188.056 278.202L187.587 277.64L187.832 277.436L188.296 277.994C188.676 277.703 189.132 277.505 189.543 277.47L189.661 277.86C189.24 277.912 188.849 278.08 188.554 278.302L189.634 279.598C190.296 279.27 191.01 278.941 191.555 279.597C191.951 280.073 191.936 280.781 191.195 281.473ZM189.336 279.739L188.316 278.516C187.849 278.979 187.84 279.427 188.097 279.735C188.407 280.107 188.849 279.97 189.336 279.739ZM191.214 279.915C190.893 279.529 190.425 279.694 189.919 279.941L190.939 281.165C191.444 280.677 191.475 280.228 191.214 279.915Z" fill="#202020"/>
<path d="M80.254 42.0348C81.6952 43.7648 81.4613 46.3352 79.7313 47.7764C78.0014 49.2176 75.4309 48.9838 73.9897 47.2538C72.5485 45.5238 72.7823 42.9534 74.5123 41.5122C76.2417 40.0709 78.8127 40.3048 80.254 42.0348Z" stroke="#202020" stroke-width="0.248" stroke-miterlimit="10"/>
<path d="M78.7087 46.266L79.1777 46.8287L78.9328 47.0322L78.4684 46.4747C77.9683 46.85 77.3714 47.0483 76.9276 47.0038L76.8372 46.6065C77.2455 46.6394 77.7758 46.4792 78.2074 46.1614L77.135 44.8745C76.4864 45.1911 75.7997 45.4811 75.2616 44.8351C74.8701 44.3655 74.8695 43.6781 75.5698 42.9953L75.1008 42.4327L75.3456 42.2285L75.8101 42.7867C76.1893 42.496 76.646 42.2976 77.0562 42.2628L77.1744 42.6529C76.7532 42.7053 76.363 42.8732 76.0672 43.0948L77.1473 44.3913C77.8101 44.0632 78.5233 43.7343 79.0691 44.39C79.4651 44.8655 79.4496 45.5741 78.7087 46.266ZM76.8501 44.5322L75.8307 43.3086C75.3637 43.7725 75.354 44.2195 75.6111 44.5276C75.9212 44.8997 76.363 44.7634 76.8501 44.5322ZM78.728 44.7079C78.4063 44.3216 77.9386 44.4869 77.4328 44.7344L78.4522 45.9579C78.9574 45.4701 78.989 45.0212 78.728 44.7079Z" fill="#202020"/>
<path opacity="0.2" d="M168.984 211.763C168.984 211.763 164.006 237.047 133.456 242.747C133.456 242.747 125.477 249.11 122.822 252.879C120.167 256.648 106.003 263.048 91.618 283.019C77.2329 302.989 55.7656 239.564 55.7656 239.564L103.168 177.997L168.984 211.763Z" fill="black" fill-opacity="0.7"/>
<path d="M196.137 93.0729C196.137 93.0729 212.61 85.0211 216.235 86.4113C219.859 87.8015 223.319 96.131 209.48 104.11C195.642 112.09 199.761 126.954 199.761 126.954H209.645C209.645 126.954 215.575 129.37 217.882 132.473C220.189 135.576 221.836 146.177 223.154 149.772C224.472 153.367 223.813 156.959 220.189 158.128C220.189 158.128 217.882 168.181 218.541 172.636C219.2 177.09 218.871 179.964 214.588 180.504C210.305 181.044 206.021 177.407 206.351 172.636L203.056 184.573L205.362 189.161C205.362 189.161 209.645 190.598 214.258 194.552C218.871 198.505 223.484 199.585 222.166 203.987C220.848 208.39 218.212 213.141 204.374 207.635C190.536 202.129 179.004 180.503 179.004 180.503L170.691 105.09L196.137 93.0729Z" fill="white"/>
<path opacity="0.4" d="M213.476 136.398C206.006 146.58 214.269 158.301 214.269 158.301C214.269 158.301 209.101 161.184 208.955 168.536C208.896 171.59 209.665 175.865 210.581 179.817C208.015 178.572 206.125 175.865 206.353 172.635L203.053 184.573L205.36 189.159C205.36 189.159 208.426 190.187 212.154 192.894C210.105 197.597 209.482 203.411 209.665 209.406C208.114 209.007 206.358 208.431 204.374 207.639C190.533 202.131 179.006 180.503 179.006 180.503L170.691 105.088L196.135 93.0739C196.135 93.0739 205.137 88.6759 211.297 86.9375C210.822 92.7037 211.955 98.6643 212.759 101.988C211.796 102.699 210.703 103.409 209.482 104.113C195.642 112.088 199.758 126.956 199.758 126.956H209.646C209.646 126.956 215.283 129.252 217.697 132.247C216.335 133.116 214.909 134.442 213.476 136.398Z" fill="#0F2289"/>
<path d="M170.368 199.593C170.368 199.593 152.446 234.732 120.144 242.7C120.144 242.7 118.911 249.653 113.444 252.635C110.525 254.227 98.7459 271.884 88.3989 287.998L31.1465 252.876C34.6756 249.389 38.6924 245.372 42.8023 241.179C54.752 228.994 67.5001 215.307 71.4052 208.583C74.893 202.576 79.3032 192.147 83.1495 182.347C88.0701 169.816 92.0753 158.301 92.0753 158.301L111.172 137.073L141.196 103.696L142.494 107.965L170.368 199.593Z" fill="white"/>
<path opacity="0.4" d="M141.195 103.696L170.368 199.594C170.368 199.594 152.446 234.732 120.144 242.701C120.144 242.701 118.911 249.654 113.444 252.636C110.825 254.063 101.065 268.438 91.6172 283.018C95.1172 271.004 105.258 251.849 105.258 251.849C98.7516 244.145 100.648 236.024 103.25 238.338C105.769 240.587 112.398 247.146 112.816 247.557C109.938 244.168 109.275 238.866 109.275 238.866C109.275 238.866 117.337 244.227 117.989 235.613C118.641 226.998 113.156 206.029 113.156 206.029L98.7871 150.843L141.195 103.696Z" fill="#0F2289"/>
<path d="M170.691 105.09L196.137 93.0729C196.137 93.0729 212.61 85.0211 216.235 86.4113C219.859 87.8015 223.319 96.131 209.48 104.11C195.643 112.09 199.761 126.954 199.761 126.954H209.645C209.645 126.954 215.575 129.37 217.882 132.473C220.189 135.576 221.836 146.177 223.154 149.772C224.472 153.367 223.813 156.959 220.189 158.128C220.189 158.128 217.882 168.181 218.541 172.636C219.2 177.09 218.871 179.964 214.588 180.504C210.305 181.044 206.021 177.407 206.351 172.636L203.056 184.573L205.362 189.161C205.362 189.161 209.645 190.598 214.258 194.552C218.871 198.505 223.484 199.585 222.166 203.987C220.848 208.39 218.212 213.141 204.374 207.635C190.536 202.129 179.004 180.503 179.004 180.503" stroke="#202020" stroke-width="0.248" stroke-miterlimit="10" stroke-linecap="round" stroke-linejoin="round"/>
<path d="M220.188 158.128C215.246 159.462 209.48 158.474 207.339 149.743C205.197 141.012 209.482 131.685 212.281 130.798" stroke="#202020" stroke-width="0.248" stroke-miterlimit="10" stroke-linecap="round" stroke-linejoin="round"/>
<path d="M206.35 172.635C206.35 172.635 206.021 161.39 210.139 158.614" stroke="#202020" stroke-width="0.248" stroke-miterlimit="10" stroke-linecap="round" stroke-linejoin="round"/>
<path opacity="0.4" d="M86.1739 228.496C86.1739 228.496 74.1008 226.992 71.4057 221.59C69.1744 217.122 57.0955 233.839 42.8027 241.179C54.7524 228.994 67.5006 215.307 71.4057 208.583C74.8934 202.576 79.3037 192.147 83.15 182.347C83.15 182.352 83.15 182.352 83.15 182.358C82.9562 190.486 78.6228 202.928 79.8618 209.405C79.8618 209.405 75.2113 210.556 76.1447 215.7C77.0717 220.839 86.1739 228.496 86.1739 228.496Z" fill="#0F2289"/>
<path d="M170.367 199.592C170.367 199.592 152.448 234.732 120.143 242.701C120.143 242.701 118.912 249.652 113.446 252.635C110.528 254.227 98.7493 271.882 88.3984 287.999" stroke="#202020" stroke-width="0.248" stroke-miterlimit="10" stroke-linecap="round" stroke-linejoin="round"/>
<path d="M31.1465 252.878C44.9418 239.24 66.1539 217.618 71.4039 208.582C79.3523 194.902 92.0772 158.298 92.0772 158.298L141.198 103.697" stroke="#202020" stroke-width="0.248" stroke-miterlimit="10" stroke-linecap="round" stroke-linejoin="round"/>
<path d="M113.158 145.394C113.158 145.394 120.702 152.152 122.822 158.299" stroke="#202020" stroke-width="0.248" stroke-miterlimit="10" stroke-linecap="round" stroke-linejoin="round"/>
<path d="M202.22 228.496H121.034C118.633 228.496 116.688 226.55 116.688 224.149V51.3219C116.688 48.9213 118.633 46.9756 121.034 46.9756H202.22C204.621 46.9756 206.567 48.9213 206.567 51.3219V224.15C206.567 226.55 204.621 228.496 202.22 228.496Z" fill="#202020"/>
<path d="M179.446 51.9167L177.73 55.0679C177.355 55.7585 176.631 56.1887 175.844 56.1887H147.41C146.623 56.1887 145.899 55.7591 145.524 55.0679L143.808 51.9167C143.432 51.2261 142.708 50.7959 141.921 50.7959H122.072C120.886 50.7959 119.924 51.7571 119.924 52.9439V222.879C119.924 224.065 120.886 225.027 122.072 225.027H201.182C202.368 225.027 203.33 224.066 203.33 222.879V52.9439C203.33 51.7578 202.368 50.7959 201.182 50.7959H181.332C180.546 50.7959 179.822 51.2261 179.446 51.9167Z" fill="#0F2289" stroke="#202020" stroke-width="0.248" stroke-miterlimit="10" stroke-linecap="round" stroke-linejoin="round"/>
<path d="M155.466 53.4451C156.107 53.4451 156.626 52.926 156.626 52.2855C156.626 51.6451 156.107 51.126 155.466 51.126C154.826 51.126 154.307 51.6451 154.307 52.2855C154.307 52.926 154.826 53.4451 155.466 53.4451Z" stroke="white" stroke-width="0.248" stroke-miterlimit="10"/>
<path d="M168.948 52.2857C168.948 52.6824 168.627 53.0041 168.23 53.0041C167.833 53.0041 167.512 52.6824 167.512 52.2857C167.512 51.8891 167.833 51.5674 168.23 51.5674C168.627 51.5674 168.948 51.8891 168.948 52.2857Z" stroke="white" stroke-width="0.248" stroke-miterlimit="10"/>
<path d="M165.727 51.835H158.704C158.455 51.835 158.254 52.0365 158.254 52.2852C158.254 52.5339 158.455 52.7355 158.704 52.7355H165.727C165.976 52.7355 166.178 52.5339 166.178 52.2852C166.178 52.0365 165.976 51.835 165.727 51.835Z" fill="white"/>
<path d="M134.633 55.1172H127.059V58.3369H134.633V55.1172Z" stroke="#202020" stroke-width="0.248" stroke-miterlimit="10" stroke-linecap="round" stroke-linejoin="round"/>
<path d="M135.809 55.6592H134.633V57.7949H135.809V55.6592Z" stroke="#202020" stroke-width="0.248" stroke-miterlimit="10" stroke-linecap="round" stroke-linejoin="round"/>
<path d="M188.331 57.1689H186.986V58.3363H188.331V57.1689Z" stroke="#202020" stroke-width="0.248" stroke-miterlimit="10" stroke-linecap="round" stroke-linejoin="round"/>
<path d="M190.952 55.9951H189.607V58.3369H190.952V55.9951Z" stroke="#202020" stroke-width="0.248" stroke-miterlimit="10" stroke-linecap="round" stroke-linejoin="round"/>
<path d="M193.575 54.8213H192.23V58.3375H193.575V54.8213Z" stroke="#202020" stroke-width="0.248" stroke-miterlimit="10" stroke-linecap="round" stroke-linejoin="round"/>
<path d="M196.196 53.6465H194.852V58.3371H196.196V53.6465Z" stroke="#202020" stroke-width="0.248" stroke-miterlimit="10" stroke-linecap="round" stroke-linejoin="round"/>
<path opacity="0.5" d="M202.79 88.3496H120.465V166.868H202.79V88.3496Z" fill="white"/>
<path d="M143.204 75.8069V77.1738C143.204 78.856 142.393 79.7727 140.74 79.7727H139.959V83.7236H138.307V73.208H140.74C142.393 73.2074 143.204 74.124 143.204 75.8069ZM139.959 74.71V78.2701H140.74C141.266 78.2701 141.551 78.0298 141.551 77.2785V75.7009C141.551 74.9496 141.266 74.7093 140.74 74.7093L139.959 74.71Z" fill="#202020"/>
<path d="M149.123 83.7236H147.456L147.171 81.816H145.143L144.857 83.7236H143.34L145.022 73.208H147.441L149.123 83.7236ZM145.353 80.3883H146.946L146.164 75.0704H146.134L145.353 80.3883Z" fill="#202020"/>
<path d="M150.703 80.2375L148.615 73.207H150.343L151.589 77.9997H151.619L152.866 73.207H154.443L152.356 80.2375V83.7226H150.703V80.2375Z" fill="#202020"/>
<path d="M158.592 80.6735H158.622L159.733 73.207H162.032V83.7226H160.469V76.1812H160.439L159.328 83.7226H157.766L156.564 76.2865H156.534V83.7226H155.092V73.207H157.39L158.592 80.6735Z" fill="#202020"/>
<path d="M164.887 77.6396H167.156V79.1415H164.887V82.2216H167.742V83.7236H163.234V73.208H167.742V74.7106H164.887V77.6396Z" fill="#202020"/>
<path d="M170.267 76.1073H170.238V83.7236H168.75V73.208H170.823L172.491 79.5026H172.521V73.208H173.993V83.7236H172.295L170.267 76.1073Z" fill="#202020"/>
<path d="M174.7 73.207H179.808V74.7096H178.08V83.7233H176.427V74.7096H174.699L174.7 73.207Z" fill="#202020"/>
<path d="M182.753 73.0879C184.361 73.0879 185.187 74.0491 185.187 75.732V76.0621H183.625V75.6267C183.625 74.8754 183.325 74.5905 182.799 74.5905C182.273 74.5905 181.973 74.876 181.973 75.6267C181.973 76.3928 182.303 76.9639 183.385 77.9103C184.768 79.1273 185.202 79.9982 185.202 81.2004C185.202 82.8825 184.361 83.8444 182.739 83.8444C181.116 83.8444 180.275 82.8832 180.275 81.2004V80.5544H181.837V81.3057C181.837 82.057 182.168 82.3276 182.693 82.3276C183.219 82.3276 183.55 82.057 183.55 81.3057C183.55 80.5395 183.219 79.9691 182.138 79.022C180.756 77.8056 180.32 76.9342 180.32 75.7326C180.319 74.0491 181.146 73.0879 182.753 73.0879Z" fill="#202020"/>
<path d="M196.196 97.8604H127.059V108.192H196.196V97.8604Z" fill="white" stroke="#202020" stroke-width="0.248" stroke-miterlimit="10" stroke-linecap="round" stroke-linejoin="round"/>
<path d="M196.196 117.238H127.059V127.57H196.196V117.238Z" fill="white" stroke="#202020" stroke-width="0.248" stroke-miterlimit="10" stroke-linecap="round" stroke-linejoin="round"/>
<path d="M196.196 134.854H127.059V145.186H196.196V134.854Z" fill="white" stroke="#202020" stroke-width="0.248" stroke-miterlimit="10" stroke-linecap="round" stroke-linejoin="round"/>
<path d="M159.789 148.948H127.059V161.041H159.789V148.948Z" fill="white" stroke="#202020" stroke-width="0.248" stroke-miterlimit="10" stroke-linecap="round" stroke-linejoin="round"/>
<path d="M196.196 148.948H163.465V161.041H196.196V148.948Z" fill="white" stroke="#202020" stroke-width="0.248" stroke-miterlimit="10" stroke-linecap="round" stroke-linejoin="round"/>
<path d="M131.369 96.0613V96.3411H129.207V93.2842H131.303V93.5639H129.531V94.6511H131.111V94.9263H129.531V96.0613H131.369Z" fill="#202020"/>
<path d="M135.852 95.0089V96.341H135.542V95.0399C135.542 94.5548 135.298 94.3061 134.883 94.3061C134.411 94.3061 134.114 94.6116 134.114 95.1356V96.341H133.804V95.0399C133.804 94.5548 133.56 94.3061 133.141 94.3061C132.674 94.3061 132.372 94.6116 132.372 95.1356V96.341H132.062V94.0438H132.36V94.4631C132.521 94.1879 132.818 94.0264 133.203 94.0264C133.583 94.0264 133.88 94.1879 134.019 94.5109C134.185 94.2137 134.513 94.0264 134.928 94.0264C135.486 94.0264 135.852 94.3494 135.852 95.0089Z" fill="#202020"/>
<path d="M138.426 94.9169V96.3407H138.129V95.9828C137.99 96.2186 137.719 96.3626 137.339 96.3626C136.819 96.3626 136.5 96.092 136.5 95.6947C136.5 95.3413 136.727 95.0442 137.386 95.0442H138.116V94.9046C138.116 94.5118 137.893 94.298 137.465 94.298C137.168 94.298 136.888 94.4027 136.701 94.5687L136.561 94.3374C136.793 94.1411 137.134 94.0273 137.496 94.0273C138.09 94.0261 138.426 94.3232 138.426 94.9169ZM138.116 95.6507V95.2754H137.395C136.95 95.2754 136.806 95.4498 136.806 95.6856C136.806 95.9524 137.02 96.1178 137.386 96.1178C137.736 96.1178 137.994 95.9518 138.116 95.6507Z" fill="#202020"/>
<path d="M139.197 93.3189C139.197 93.2007 139.297 93.1006 139.425 93.1006C139.551 93.1006 139.652 93.1962 139.652 93.3144C139.652 93.441 139.556 93.5418 139.425 93.5418C139.297 93.5418 139.197 93.441 139.197 93.3189ZM139.268 94.0438H139.577V96.3409H139.268V94.0438Z" fill="#202020"/>
<path d="M140.441 93.1006H140.751V96.3409H140.441V93.1006Z" fill="#202020"/>
<path d="M133.505 103.992V104.272H131.344V101.215H133.44V101.495H131.667V102.582H133.248V102.857H131.667V103.992H133.505Z" fill="#202020"/>
<path d="M137.989 102.94V104.272H137.679V102.971C137.679 102.485 137.434 102.237 137.02 102.237C136.548 102.237 136.251 102.542 136.251 103.066V104.272H135.941V102.971C135.941 102.485 135.697 102.237 135.277 102.237C134.81 102.237 134.509 102.542 134.509 103.066V104.272H134.199V101.974H134.496V102.394C134.657 102.119 134.954 101.957 135.339 101.957C135.719 101.957 136.016 102.119 136.155 102.442C136.321 102.145 136.649 101.957 137.064 101.957C137.622 101.957 137.989 102.28 137.989 102.94Z" fill="#202020"/>
<path d="M140.563 102.848V104.271H140.266V103.913C140.126 104.149 139.856 104.293 139.475 104.293C138.956 104.293 138.637 104.023 138.637 103.625C138.637 103.272 138.864 102.975 139.524 102.975H140.253V102.835C140.253 102.443 140.03 102.229 139.602 102.229C139.306 102.229 139.026 102.333 138.838 102.499L138.699 102.268C138.93 102.072 139.271 101.958 139.633 101.958C140.227 101.957 140.563 102.254 140.563 102.848ZM140.254 103.581V103.205H139.533C139.088 103.205 138.943 103.381 138.943 103.616C138.943 103.882 139.157 104.048 139.524 104.048C139.874 104.048 140.131 103.883 140.254 103.581Z" fill="#202020"/>
<path d="M141.334 101.25C141.334 101.131 141.434 101.031 141.561 101.031C141.688 101.031 141.789 101.127 141.789 101.245C141.789 101.372 141.693 101.472 141.561 101.472C141.435 101.472 141.334 101.372 141.334 101.25ZM141.404 101.975H141.714V104.272H141.404V101.975Z" fill="#202020"/>
<path d="M142.58 101.032H142.89V104.273H142.58V101.032Z" fill="#202020"/>
<path d="M145.867 102.94V104.272H145.557V102.971C145.557 102.485 145.304 102.237 144.867 102.237C144.373 102.237 144.063 102.542 144.063 103.066V104.272H143.754V101.974H144.05V102.398C144.216 102.119 144.527 101.957 144.924 101.957C145.483 101.957 145.867 102.28 145.867 102.94Z" fill="#202020"/>
<path d="M148.441 102.848V104.271H148.145V103.913C148.005 104.149 147.735 104.293 147.354 104.293C146.835 104.293 146.516 104.023 146.516 103.625C146.516 103.272 146.743 102.975 147.402 102.975H148.131V102.835C148.131 102.443 147.908 102.229 147.481 102.229C147.184 102.229 146.905 102.333 146.717 102.499L146.577 102.268C146.808 102.072 147.149 101.958 147.512 101.958C148.105 101.957 148.441 102.254 148.441 102.848ZM148.131 103.581V103.205H147.41C146.965 103.205 146.821 103.381 146.821 103.616C146.821 103.882 147.035 104.048 147.401 104.048C147.751 104.048 148.009 103.883 148.131 103.581Z" fill="#202020"/>
<path d="M153.075 102.94V104.272H152.765V102.971C152.765 102.485 152.52 102.237 152.106 102.237C151.634 102.237 151.337 102.542 151.337 103.066V104.272H151.027V102.971C151.027 102.485 150.783 102.237 150.363 102.237C149.896 102.237 149.595 102.542 149.595 103.066V104.272H149.285V101.974H149.582V102.394C149.743 102.119 150.04 101.957 150.425 101.957C150.805 101.957 151.102 102.119 151.241 102.442C151.407 102.145 151.735 101.957 152.15 101.957C152.708 101.957 153.075 102.28 153.075 102.94Z" fill="#202020"/>
<path d="M155.923 103.219H154.001C154.036 103.699 154.403 104.018 154.905 104.018C155.185 104.018 155.434 103.918 155.608 103.717L155.783 103.918C155.578 104.162 155.259 104.294 154.897 104.294C154.18 104.294 153.691 103.805 153.691 103.123C153.691 102.442 154.168 101.957 154.814 101.957C155.46 101.957 155.927 102.433 155.927 103.123C155.927 103.15 155.923 103.184 155.923 103.219ZM154.001 102.988H155.63C155.591 102.538 155.264 102.224 154.814 102.224C154.368 102.224 154.041 102.538 154.001 102.988Z" fill="#202020"/>
<path d="M160.416 103.114C160.416 103.856 160.141 104.293 159.691 104.293C159.407 104.293 159.215 104.118 159.197 103.817C159.022 104.118 158.708 104.293 158.324 104.293C157.704 104.293 157.241 103.822 157.241 103.163C157.241 102.508 157.704 102.041 158.324 102.041C158.699 102.041 159.01 102.207 159.188 102.499V102.057H159.472V103.712C159.472 103.957 159.594 104.044 159.742 104.044C160.013 104.044 160.188 103.709 160.188 103.119C160.188 102.093 159.449 101.411 158.393 101.411C157.323 101.411 156.594 102.128 156.594 103.163C156.594 104.198 157.315 104.922 158.375 104.922C158.637 104.922 158.961 104.861 159.214 104.73L159.288 104.944C159.026 105.079 158.668 105.145 158.375 105.145C157.175 105.145 156.354 104.32 156.354 103.163C156.354 102.001 157.188 101.188 158.393 101.188C159.578 101.188 160.416 101.97 160.416 103.114ZM159.193 103.162C159.193 102.634 158.835 102.293 158.364 102.293C157.879 102.293 157.53 102.638 157.53 103.162C157.53 103.686 157.879 104.039 158.364 104.039C158.835 104.04 159.193 103.695 159.193 103.162Z" fill="#202020"/>
<path d="M163.068 103.219H161.147C161.182 103.699 161.548 104.018 162.05 104.018C162.33 104.018 162.579 103.918 162.753 103.717L162.928 103.918C162.723 104.162 162.404 104.294 162.041 104.294C161.325 104.294 160.836 103.805 160.836 103.123C160.836 102.442 161.312 101.957 161.958 101.957C162.605 101.957 163.072 102.433 163.072 103.123C163.072 103.15 163.068 103.184 163.068 103.219ZM161.147 102.988H162.775C162.736 102.538 162.409 102.224 161.959 102.224C161.514 102.224 161.186 102.538 161.147 102.988Z" fill="#202020"/>
<path d="M167.495 102.94V104.272H167.185V102.971C167.185 102.485 166.941 102.237 166.526 102.237C166.055 102.237 165.757 102.542 165.757 103.066V104.272H165.447V102.971C165.447 102.485 165.203 102.237 164.784 102.237C164.316 102.237 164.015 102.542 164.015 103.066V104.272H163.705V101.974H164.002V102.394C164.163 102.119 164.46 101.957 164.845 101.957C165.224 101.957 165.522 102.119 165.662 102.442C165.828 102.145 166.155 101.957 166.569 101.957C167.128 101.957 167.495 102.28 167.495 102.94Z" fill="#202020"/>
<path d="M170.071 102.848V104.271H169.774V103.913C169.634 104.149 169.364 104.293 168.983 104.293C168.464 104.293 168.145 104.023 168.145 103.625C168.145 103.272 168.372 102.975 169.031 102.975H169.761V102.835C169.761 102.443 169.537 102.229 169.11 102.229C168.812 102.229 168.533 102.333 168.345 102.499L168.205 102.268C168.437 102.072 168.778 101.958 169.139 101.958C169.735 101.957 170.071 102.254 170.071 102.848ZM169.761 103.581V103.205H169.041C168.595 103.205 168.451 103.381 168.451 103.616C168.451 103.882 168.665 104.048 169.032 104.048C169.381 104.048 169.639 103.883 169.761 103.581Z" fill="#202020"/>
<path d="M170.842 101.25C170.842 101.131 170.943 101.031 171.069 101.031C171.196 101.031 171.297 101.127 171.297 101.245C171.297 101.372 171.201 101.472 171.069 101.472C170.943 101.472 170.842 101.372 170.842 101.25ZM170.913 101.975H171.222V104.272H170.913V101.975Z" fill="#202020"/>
<path d="M172.086 101.032H172.396V104.273H172.086V101.032Z" fill="#202020"/>
<path d="M173.061 104.053C173.061 103.918 173.165 103.817 173.292 103.817C173.418 103.817 173.528 103.918 173.528 104.053C173.528 104.188 173.418 104.293 173.292 104.293C173.165 104.293 173.061 104.189 173.061 104.053Z" fill="#202020"/>
<path d="M173.889 103.123C173.889 102.438 174.387 101.957 175.072 101.957C175.461 101.957 175.788 102.109 175.972 102.411L175.741 102.568C175.584 102.337 175.339 102.228 175.073 102.228C174.571 102.228 174.203 102.586 174.203 103.123C174.203 103.664 174.57 104.018 175.073 104.018C175.339 104.018 175.584 103.914 175.741 103.683L175.972 103.839C175.789 104.137 175.461 104.294 175.072 104.294C174.387 104.294 173.889 103.809 173.889 103.123Z" fill="#202020"/>
<path d="M176.307 103.123C176.307 102.442 176.804 101.957 177.477 101.957C178.149 101.957 178.643 102.442 178.643 103.123C178.643 103.805 178.149 104.294 177.477 104.294C176.804 104.294 176.307 103.805 176.307 103.123ZM178.328 103.123C178.328 102.586 177.966 102.228 177.477 102.228C176.988 102.228 176.621 102.586 176.621 103.123C176.621 103.661 176.988 104.018 177.477 104.018C177.966 104.018 178.328 103.661 178.328 103.123Z" fill="#202020"/>
<path d="M183.066 102.94V104.272H182.757V102.971C182.757 102.485 182.512 102.237 182.097 102.237C181.626 102.237 181.329 102.542 181.329 103.066V104.272H181.019V102.971C181.019 102.485 180.774 102.237 180.356 102.237C179.888 102.237 179.587 102.542 179.587 103.066V104.272H179.277V101.974H179.574V102.394C179.736 102.119 180.033 101.957 180.418 101.957C180.797 101.957 181.095 102.119 181.234 102.442C181.4 102.145 181.728 101.957 182.142 101.957C182.7 101.957 183.066 102.28 183.066 102.94Z" fill="#202020"/>
<path d="M131.893 122.458L132.434 122.764L132.334 122.947L131.788 122.629V123.248H131.587L131.592 122.629L131.046 122.947L130.941 122.764L131.487 122.458L130.941 122.152L131.046 121.964L131.592 122.288L131.587 121.668H131.788V122.288L132.334 121.964L132.434 122.152L131.893 122.458Z" fill="#202020"/>
<path d="M133.664 122.458L134.206 122.764L134.106 122.947L133.56 122.629V123.248H133.359L133.363 122.629L132.818 122.947L132.713 122.764L133.259 122.458L132.713 122.152L132.818 121.964L133.363 122.288L133.359 121.668H133.56V122.288L134.106 121.964L134.206 122.152L133.664 122.458Z" fill="#202020"/>
<path d="M135.438 122.458L135.979 122.764L135.879 122.947L135.333 122.629V123.248H135.132L135.137 122.629L134.591 122.947L134.486 122.764L135.032 122.458L134.486 122.152L134.591 121.964L135.137 122.288L135.132 121.668H135.333V122.288L135.879 121.964L135.979 122.152L135.438 122.458Z" fill="#202020"/>
<path d="M137.209 122.458L137.751 122.764L137.651 122.947L137.105 122.629V123.248H136.904L136.908 122.629L136.362 122.947L136.258 122.764L136.804 122.458L136.258 122.152L136.362 121.964L136.908 122.288L136.904 121.668H137.105V122.288L137.651 121.964L137.751 122.152L137.209 122.458Z" fill="#202020"/>
<path d="M138.981 122.458L139.522 122.764L139.422 122.947L138.876 122.629V123.248H138.675L138.68 122.629L138.134 122.947L138.029 122.764L138.575 122.458L138.029 122.152L138.134 121.964L138.68 122.288L138.675 121.668H138.876V122.288L139.422 121.964L139.522 122.152L138.981 122.458Z" fill="#202020"/>
<path d="M140.752 122.458L141.294 122.764L141.194 122.947L140.648 122.629V123.248H140.447L140.451 122.629L139.905 122.947L139.801 122.764L140.347 122.458L139.801 122.152L139.905 121.964L140.451 122.288L140.447 121.668H140.648V122.288L141.194 121.964L141.294 122.152L140.752 122.458Z" fill="#202020"/>
<path d="M142.526 122.458L143.067 122.764L142.967 122.947L142.421 122.629V123.248H142.22L142.225 122.629L141.679 122.947L141.574 122.764L142.12 122.458L141.574 122.152L141.679 121.964L142.225 122.288L142.22 121.668H142.421V122.288L142.967 121.964L143.067 122.152L142.526 122.458Z" fill="#202020"/>
<path d="M144.297 122.458L144.839 122.764L144.738 122.947L144.193 122.629V123.248H143.992L143.996 122.629L143.45 122.947L143.346 122.764L143.892 122.458L143.346 122.152L143.45 121.964L143.996 122.288L143.992 121.668H144.193V122.288L144.738 121.964L144.839 122.152L144.297 122.458Z" fill="#202020"/>
<path d="M146.069 122.458L146.61 122.764L146.51 122.947L145.964 122.629V123.248H145.763L145.768 122.629L145.222 122.947L145.117 122.764L145.663 122.458L145.117 122.152L145.222 121.964L145.768 122.288L145.763 121.668H145.964V122.288L146.51 121.964L146.61 122.152L146.069 122.458Z" fill="#202020"/>
<path d="M147.842 122.458L148.384 122.764L148.283 122.947L147.738 122.629V123.248H147.537L147.541 122.629L146.995 122.947L146.891 122.764L147.436 122.458L146.891 122.152L146.995 121.964L147.541 122.288L147.537 121.668H147.738V122.288L148.283 121.964L148.384 122.152L147.842 122.458Z" fill="#202020"/>
<path d="M149.614 122.458L150.155 122.764L150.055 122.947L149.509 122.629V123.248H149.308L149.313 122.629L148.767 122.947L148.662 122.764L149.208 122.458L148.662 122.152L148.767 121.964L149.313 122.288L149.308 121.668H149.509V122.288L150.055 121.964L150.155 122.152L149.614 122.458Z" fill="#202020"/>
<path d="M131.599 113.71C131.599 114.36 131.127 114.754 130.349 114.754H129.529V115.719H129.205V112.662H130.349C131.127 112.662 131.599 113.055 131.599 113.71ZM131.276 113.71C131.276 113.221 130.953 112.941 130.341 112.941H129.529V114.47H130.341C130.953 114.47 131.276 114.191 131.276 113.71Z" fill="#202020"/>
<path d="M133.942 114.295V115.719H133.645V115.361C133.505 115.597 133.235 115.741 132.854 115.741C132.335 115.741 132.016 115.47 132.016 115.073C132.016 114.719 132.243 114.422 132.903 114.422H133.632V114.283C133.632 113.89 133.409 113.676 132.981 113.676C132.684 113.676 132.405 113.781 132.217 113.947L132.078 113.715C132.309 113.519 132.65 113.405 133.012 113.405C133.606 113.404 133.942 113.701 133.942 114.295ZM133.632 115.029V114.653H132.911C132.466 114.653 132.321 114.828 132.321 115.063C132.321 115.33 132.535 115.495 132.902 115.495C133.252 115.496 133.51 115.33 133.632 115.029Z" fill="#202020"/>
<path d="M134.465 115.457L134.604 115.212C134.788 115.357 135.098 115.47 135.421 115.47C135.858 115.47 136.037 115.322 136.037 115.094C136.037 114.496 134.548 114.968 134.548 114.059C134.548 113.684 134.871 113.404 135.456 113.404C135.753 113.404 136.076 113.488 136.268 113.618L136.133 113.867C135.932 113.727 135.692 113.67 135.456 113.67C135.041 113.67 134.858 113.833 134.858 114.05C134.858 114.67 136.347 114.203 136.347 115.085C136.347 115.482 135.997 115.74 135.399 115.74C135.019 115.741 134.652 115.619 134.465 115.457Z" fill="#202020"/>
<path d="M136.6 115.457L136.739 115.212C136.923 115.357 137.233 115.47 137.556 115.47C137.992 115.47 138.171 115.322 138.171 115.094C138.171 114.496 136.682 114.968 136.682 114.059C136.682 113.684 137.005 113.404 137.591 113.404C137.888 113.404 138.211 113.488 138.403 113.618L138.267 113.867C138.066 113.727 137.826 113.67 137.59 113.67C137.175 113.67 136.992 113.833 136.992 114.05C136.992 114.67 138.481 114.203 138.481 115.085C138.481 115.482 138.131 115.74 137.533 115.74C137.155 115.741 136.788 115.619 136.6 115.457Z" fill="#202020"/>
<path d="M142.381 113.422L141.513 115.719H141.22L140.495 113.837L139.77 115.719H139.478L138.613 113.422H138.91L139.63 115.373L140.368 113.422H140.635L141.368 115.373L142.098 113.422H142.381Z" fill="#202020"/>
<path d="M142.551 114.57C142.551 113.889 143.048 113.404 143.721 113.404C144.393 113.404 144.887 113.889 144.887 114.57C144.887 115.252 144.393 115.741 143.721 115.741C143.048 115.741 142.551 115.252 142.551 114.57ZM144.572 114.57C144.572 114.033 144.21 113.675 143.721 113.675C143.232 113.675 142.865 114.033 142.865 114.57C142.865 115.108 143.231 115.466 143.721 115.466C144.21 115.466 144.572 115.108 144.572 114.57Z" fill="#202020"/>
<path d="M146.675 113.404V113.705C146.648 113.705 146.622 113.701 146.6 113.701C146.12 113.701 145.827 114.006 145.827 114.548V115.719H145.518V113.422H145.814V113.871C145.958 113.566 146.251 113.404 146.675 113.404Z" fill="#202020"/>
<path d="M149.308 112.479V115.719H149.011V115.265C148.823 115.575 148.504 115.741 148.125 115.741C147.469 115.741 146.98 115.265 146.98 114.57C146.98 113.876 147.469 113.404 148.125 113.404C148.491 113.404 148.805 113.561 148.998 113.858V112.479H149.308ZM149.002 114.57C149.002 114.033 148.636 113.675 148.15 113.675C147.661 113.675 147.294 114.033 147.294 114.57C147.294 115.108 147.661 115.466 148.15 115.466C148.636 115.466 149.002 115.108 149.002 114.57Z" fill="#202020"/>
<path d="M153.902 138.88V141.937H153.587V139.16H152.867V138.88H153.902Z" fill="#202020"/>
<path d="M156.718 141.657V141.937H154.574V141.714L155.845 140.469C156.19 140.129 156.256 139.923 156.256 139.714C156.256 139.36 156.007 139.142 155.539 139.142C155.181 139.142 154.906 139.251 154.705 139.482L154.482 139.29C154.718 139.011 155.098 138.854 155.565 138.854C156.185 138.854 156.578 139.168 156.578 139.679C156.578 139.972 156.486 140.233 156.076 140.635L155.037 141.657H156.718V141.657Z" fill="#202020"/>
<path d="M159.131 141.059C159.131 141.57 158.76 141.963 158.022 141.963C157.581 141.963 157.158 141.81 156.922 141.57L157.074 141.321C157.271 141.527 157.625 141.674 158.022 141.674C158.528 141.674 158.808 141.439 158.808 141.059C158.808 140.693 158.55 140.452 157.983 140.452H157.765V140.221L158.612 139.16H157.048V138.88H159.014V139.103L158.149 140.19C158.803 140.225 159.131 140.57 159.131 141.059Z" fill="#202020"/>
<path d="M162.17 141.133H161.559V141.936H161.244V141.133H159.52V140.905L161.14 138.879H161.489L159.925 140.853H161.253V140.146H161.558V140.853H162.169V141.133H162.17Z" fill="#202020"/>
<path d="M165.676 141.037C165.676 141.557 165.314 141.963 164.566 141.963C164.125 141.963 163.706 141.81 163.471 141.57L163.623 141.321C163.82 141.527 164.17 141.674 164.562 141.674C165.082 141.674 165.356 141.421 165.356 141.05C165.356 140.658 165.112 140.413 164.334 140.413H163.684L163.841 138.88H165.513V139.16H164.116L164.011 140.134H164.404C165.326 140.133 165.676 140.496 165.676 141.037Z" fill="#202020"/>
<path d="M168.368 141.024C168.368 141.596 167.919 141.963 167.325 141.963C166.512 141.963 166.072 141.399 166.072 140.434C166.072 139.395 166.64 138.854 167.469 138.854C167.744 138.854 168.002 138.902 168.194 139.02L168.067 139.273C167.911 139.168 167.701 139.129 167.474 139.129C166.814 139.129 166.39 139.552 166.39 140.383C166.39 140.452 166.395 140.54 166.404 140.631C166.556 140.295 166.915 140.107 167.338 140.107C167.945 140.107 168.368 140.465 168.368 141.024ZM168.059 141.032C168.059 140.631 167.762 140.373 167.289 140.373C166.822 140.373 166.503 140.661 166.503 141.041C166.503 141.377 166.784 141.696 167.311 141.696C167.753 141.697 168.059 141.439 168.059 141.032Z" fill="#202020"/>
<path d="M170.852 138.88V139.103L169.572 141.937H169.232L170.489 139.16H168.917V139.732H168.607V138.881H170.852V138.88Z" fill="#202020"/>
<path d="M173.533 141.086C173.533 141.627 173.074 141.964 172.345 141.964C171.611 141.964 171.166 141.627 171.166 141.086C171.166 140.719 171.375 140.462 171.755 140.334C171.446 140.212 171.276 139.981 171.276 139.662C171.276 139.164 171.698 138.854 172.345 138.854C172.992 138.854 173.424 139.165 173.424 139.662C173.424 139.981 173.249 140.212 172.935 140.334C173.318 140.461 173.533 140.723 173.533 141.086ZM173.21 141.081C173.21 140.706 172.887 140.469 172.345 140.469C171.804 140.469 171.485 140.705 171.485 141.081C171.485 141.461 171.804 141.697 172.345 141.697C172.887 141.697 173.21 141.461 173.21 141.081ZM172.345 140.221C172.821 140.221 173.105 140.007 173.105 139.675C173.105 139.33 172.804 139.121 172.345 139.121C171.882 139.121 171.59 139.33 171.59 139.671C171.59 140.007 171.868 140.221 172.345 140.221Z" fill="#202020"/>
<path d="M177.316 140.383C177.316 141.422 176.749 141.964 175.919 141.964C175.644 141.964 175.386 141.916 175.194 141.798L175.321 141.544C175.478 141.649 175.687 141.688 175.915 141.688C176.574 141.688 176.998 141.265 176.998 140.435C176.998 140.365 176.993 140.278 176.984 140.187C176.832 140.522 176.474 140.71 176.05 140.71C175.443 140.71 175.02 140.353 175.02 139.794C175.02 139.221 175.469 138.854 176.063 138.854C176.875 138.854 177.316 139.417 177.316 140.383ZM176.884 139.776C176.884 139.44 176.604 139.121 176.076 139.121C175.635 139.121 175.33 139.378 175.33 139.784C175.33 140.186 175.627 140.443 176.098 140.443C176.565 140.444 176.884 140.156 176.884 139.776Z" fill="#202020"/>
<path d="M178.607 138.88V141.937H178.293V139.16H177.572V138.88H178.607Z" fill="#202020"/>
<path d="M179.336 140.408C179.336 139.435 179.847 138.854 180.554 138.854C181.262 138.854 181.777 139.434 181.777 140.408C181.777 141.382 181.262 141.963 180.554 141.963C179.847 141.963 179.336 141.382 179.336 140.408ZM181.454 140.408C181.454 139.592 181.087 139.142 180.554 139.142C180.021 139.142 179.654 139.592 179.654 140.408C179.654 141.225 180.021 141.675 180.554 141.675C181.087 141.675 181.454 141.225 181.454 140.408Z" fill="#202020"/>
<path d="M183.064 138.88V141.937H182.75V139.16H182.029V138.88H183.064Z" fill="#202020"/>
<path d="M185.783 138.88V141.937H185.468V139.16H184.748V138.88H185.783Z" fill="#202020"/>
<path d="M187.359 138.88V141.937H187.045V139.16H186.324V138.88H187.359Z" fill="#202020"/>
<path d="M190.175 141.657V141.937H188.031V141.714L189.301 140.469C189.646 140.129 189.712 139.923 189.712 139.714C189.712 139.36 189.463 139.142 188.996 139.142C188.638 139.142 188.363 139.251 188.162 139.482L187.939 139.29C188.175 139.011 188.555 138.854 189.022 138.854C189.642 138.854 190.035 139.168 190.035 139.679C190.035 139.972 189.943 140.233 189.533 140.635L188.494 141.657H190.175V141.657Z" fill="#202020"/>
<path d="M191.414 138.88V141.937H191.099V139.16H190.379V138.88H191.414Z" fill="#202020"/>
<path d="M139.897 138.178V137.714C139.897 137.265 139.533 136.9 139.084 136.9H130.837C130.388 136.9 130.023 137.264 130.023 137.714V138.178H139.897Z" fill="#202020"/>
<path d="M130.023 138.817V142.244C130.023 142.693 130.387 143.057 130.837 143.057H139.084C139.533 143.057 139.897 142.693 139.897 142.244V138.817H130.023Z" fill="#202020"/>
<path d="M130.148 156.851C130.148 155.877 130.659 155.296 131.367 155.296C132.074 155.296 132.59 155.877 132.59 156.851C132.59 157.824 132.074 158.405 131.367 158.405C130.659 158.405 130.148 157.824 130.148 156.851ZM132.266 156.851C132.266 156.034 131.899 155.584 131.366 155.584C130.833 155.584 130.466 156.034 130.466 156.851C130.466 157.667 130.833 158.117 131.366 158.117C131.899 158.117 132.266 157.667 132.266 156.851Z" fill="#202020"/>
<path d="M135.388 157.527C135.388 158.069 134.93 158.405 134.2 158.405C133.467 158.405 133.021 158.069 133.021 157.527C133.021 157.161 133.231 156.903 133.611 156.776C133.301 156.654 133.131 156.423 133.131 156.103C133.131 155.606 133.554 155.296 134.201 155.296C134.848 155.296 135.28 155.606 135.28 156.103C135.28 156.423 135.105 156.654 134.791 156.776C135.174 156.903 135.388 157.165 135.388 157.527ZM135.065 157.523C135.065 157.147 134.742 156.912 134.2 156.912C133.659 156.912 133.34 157.148 133.34 157.523C133.34 157.903 133.659 158.139 134.2 158.139C134.742 158.139 135.065 157.903 135.065 157.523ZM134.2 156.663C134.677 156.663 134.96 156.449 134.96 156.117C134.96 155.772 134.659 155.563 134.2 155.563C133.738 155.563 133.445 155.772 133.445 156.113C133.445 156.449 133.724 156.663 134.2 156.663Z" fill="#202020"/>
<path d="M136.927 154.702H137.211L135.77 158.815H135.486L136.927 154.702Z" fill="#202020"/>
<path d="M139.373 158.1V158.38H137.228V158.157L138.499 156.913C138.844 156.572 138.91 156.367 138.91 156.157C138.91 155.803 138.661 155.585 138.194 155.585C137.836 155.585 137.56 155.694 137.36 155.925L137.137 155.734C137.373 155.454 137.752 155.297 138.219 155.297C138.84 155.297 139.232 155.611 139.232 156.122C139.232 156.415 139.141 156.677 138.73 157.079L137.691 158.101L139.373 158.1Z" fill="#202020"/>
<path d="M141.838 157.479C141.838 157.999 141.475 158.405 140.728 158.405C140.287 158.405 139.868 158.253 139.633 158.012L139.785 157.763C139.982 157.969 140.331 158.117 140.725 158.117C141.244 158.117 141.519 157.864 141.519 157.493C141.519 157.1 141.275 156.855 140.498 156.855H139.847L140.004 155.322H141.677V155.602H140.279L140.175 156.576H140.568C141.488 156.576 141.838 156.938 141.838 157.479Z" fill="#202020"/>
<path d="M131.57 153.353V153.526H130.229V151.628H131.53V151.802H130.429V152.477H131.41V152.648H130.429V153.353H131.57Z" fill="#202020"/>
<path d="M133.211 153.527L132.598 152.692L131.988 153.527H131.758L132.479 152.551L131.804 151.629H132.034L132.606 152.404L133.175 151.629H133.392L132.72 152.546L133.443 153.527H133.211Z" fill="#202020"/>
<path d="M135.222 152.28C135.222 152.684 134.929 152.928 134.447 152.928H133.937V153.527H133.736V151.629H134.446C134.929 151.629 135.222 151.873 135.222 152.28ZM135.021 152.28C135.021 151.976 134.82 151.803 134.441 151.803H133.937V152.752H134.441C134.821 152.751 135.021 152.578 135.021 152.28Z" fill="#202020"/>
<path d="M136.396 151.629H137.169C137.776 151.629 138.186 152.02 138.186 152.578C138.186 153.137 137.776 153.527 137.169 153.527H136.396V151.629ZM137.158 153.353C137.662 153.353 137.988 153.033 137.988 152.578C137.988 152.122 137.663 151.803 137.158 151.803H136.597V153.353H137.158Z" fill="#202020"/>
<path d="M139.674 152.643V153.527H139.49V153.304C139.403 153.451 139.234 153.54 138.999 153.54C138.677 153.54 138.479 153.372 138.479 153.125C138.479 152.906 138.619 152.722 139.029 152.722H139.482V152.635C139.482 152.391 139.344 152.258 139.078 152.258C138.893 152.258 138.72 152.324 138.604 152.426L138.517 152.282C138.661 152.161 138.873 152.09 139.097 152.09C139.466 152.09 139.674 152.274 139.674 152.643ZM139.482 153.098V152.865H139.035C138.758 152.865 138.669 152.974 138.669 153.12C138.669 153.286 138.802 153.389 139.03 153.389C139.246 153.388 139.406 153.285 139.482 153.098Z" fill="#202020"/>
<path d="M140.95 153.44C140.874 153.507 140.76 153.54 140.649 153.54C140.381 153.54 140.232 153.388 140.232 153.125V152.263H139.977V152.101H140.232V151.789H140.424V152.101H140.858V152.263H140.424V153.115C140.424 153.283 140.511 153.375 140.671 153.375C140.75 153.375 140.829 153.35 140.882 153.302L140.95 153.44Z" fill="#202020"/>
<path d="M142.492 152.872H141.299C141.321 153.17 141.549 153.369 141.861 153.369C142.034 153.369 142.189 153.306 142.297 153.181L142.406 153.306C142.279 153.458 142.08 153.539 141.855 153.539C141.411 153.539 141.107 153.236 141.107 152.813C141.107 152.39 141.403 152.089 141.804 152.089C142.206 152.089 142.496 152.385 142.496 152.813C142.495 152.829 142.492 152.851 142.492 152.872ZM141.299 152.729H142.31C142.286 152.45 142.083 152.255 141.803 152.255C141.527 152.255 141.324 152.45 141.299 152.729Z" fill="#202020"/>
<path d="M166.228 155.322V158.379H165.914V155.602H165.193V155.322H166.228Z" fill="#202020"/>
<path d="M169.044 158.099V158.379H166.9V158.156L168.17 156.912C168.515 156.571 168.581 156.366 168.581 156.156C168.581 155.802 168.333 155.584 167.865 155.584C167.507 155.584 167.232 155.693 167.031 155.924L166.809 155.733C167.044 155.453 167.424 155.296 167.891 155.296C168.511 155.296 168.904 155.611 168.904 156.121C168.904 156.414 168.812 156.676 168.402 157.078L167.363 158.1L169.044 158.099Z" fill="#202020"/>
<path d="M171.457 157.501C171.457 158.012 171.087 158.405 170.348 158.405C169.906 158.405 169.483 158.253 169.248 158.012L169.4 157.763C169.597 157.969 169.95 158.117 170.348 158.117C170.854 158.117 171.134 157.881 171.134 157.501C171.134 157.135 170.877 156.895 170.309 156.895H170.09V156.663L170.938 155.602H169.375V155.322H171.34V155.545L170.475 156.633C171.129 156.667 171.457 157.012 171.457 157.501Z" fill="#202020"/>
<path d="M165.295 152.578C165.295 152.023 165.718 151.613 166.29 151.613C166.567 151.613 166.816 151.706 166.984 151.89L166.857 152.017C166.702 151.86 166.513 151.792 166.296 151.792C165.838 151.792 165.493 152.128 165.493 152.578C165.493 153.029 165.838 153.365 166.296 153.365C166.513 153.365 166.702 153.297 166.857 153.137L166.984 153.264C166.816 153.449 166.567 153.544 166.287 153.544C165.718 153.544 165.295 153.134 165.295 152.578Z" fill="#202020"/>
<path d="M169.998 151.63L169.359 153.528H169.147L168.592 151.91L168.033 153.528H167.825L167.186 151.63H167.391L167.939 153.262L168.505 151.63H168.692L169.251 153.27L169.806 151.63H169.998Z" fill="#202020"/>
<path d="M149.279 174.798H147.576L147.209 175.615H146.873L148.27 172.559H148.589L149.986 175.615H149.646L149.279 174.798ZM149.161 174.536L148.427 172.895L147.693 174.536H149.161Z" fill="#202020"/>
<path d="M150.172 174.466C150.172 173.779 150.67 173.299 151.355 173.299C151.744 173.299 152.071 173.452 152.255 173.753L152.023 173.91C151.866 173.679 151.622 173.57 151.355 173.57C150.853 173.57 150.486 173.928 150.486 174.466C150.486 175.007 150.852 175.361 151.355 175.361C151.622 175.361 151.866 175.256 152.023 175.024L152.255 175.181C152.071 175.478 151.744 175.635 151.355 175.635C150.67 175.636 150.172 175.151 150.172 174.466Z" fill="#202020"/>
<path d="M154.097 175.475C153.975 175.585 153.792 175.637 153.613 175.637C153.18 175.637 152.94 175.392 152.94 174.969V173.58H152.529V173.318H152.94V172.816H153.25V173.318H153.949V173.58H153.25V174.951C153.25 175.222 153.39 175.37 153.648 175.37C153.774 175.37 153.901 175.331 153.988 175.252L154.097 175.475Z" fill="#202020"/>
<path d="M154.59 172.592C154.59 172.474 154.69 172.374 154.817 172.374C154.944 172.374 155.045 172.47 155.045 172.588C155.045 172.714 154.948 172.815 154.817 172.815C154.691 172.815 154.59 172.714 154.59 172.592ZM154.66 173.317H154.97V175.614H154.66V173.317Z" fill="#202020"/>
<path d="M155.602 174.466C155.602 173.784 156.099 173.299 156.772 173.299C157.445 173.299 157.938 173.784 157.938 174.466C157.938 175.146 157.445 175.635 156.772 175.635C156.099 175.636 155.602 175.146 155.602 174.466ZM157.623 174.466C157.623 173.928 157.26 173.57 156.771 173.57C156.282 173.57 155.916 173.928 155.916 174.466C155.916 175.002 156.282 175.361 156.771 175.361C157.26 175.361 157.623 175.002 157.623 174.466Z" fill="#202020"/>
<path d="M160.683 174.283V175.615H160.373V174.313C160.373 173.829 160.12 173.579 159.683 173.579C159.19 173.579 158.88 173.885 158.88 174.409V175.614H158.57V173.317H158.867V173.741C159.033 173.461 159.344 173.299 159.741 173.299C160.3 173.3 160.683 173.624 160.683 174.283Z" fill="#202020"/>
<path d="M163.058 172.838V174.038H164.638V174.318H163.058V175.615H162.734V172.559H164.831V172.838L163.058 172.838Z" fill="#202020"/>
<path d="M165.318 172.592C165.318 172.474 165.418 172.374 165.546 172.374C165.672 172.374 165.773 172.47 165.773 172.588C165.773 172.714 165.677 172.815 165.546 172.815C165.418 172.815 165.318 172.714 165.318 172.592ZM165.388 173.317H165.698V175.614H165.388V173.317Z" fill="#202020"/>
<path d="M168.689 173.317V175.334C168.689 176.125 168.3 176.482 167.541 176.482C167.121 176.482 166.711 176.356 166.471 176.129L166.627 175.893C166.846 176.09 167.178 176.207 167.532 176.207C168.112 176.207 168.378 175.941 168.378 175.373V175.081C168.186 175.373 167.858 175.526 167.483 175.526C166.828 175.526 166.33 175.068 166.33 174.409C166.33 173.749 166.828 173.299 167.483 173.299C167.867 173.299 168.198 173.456 168.391 173.757V173.316H168.689V173.317ZM168.388 174.409C168.388 173.911 168.021 173.57 167.514 173.57C167.008 173.57 166.645 173.91 166.645 174.409C166.645 174.907 167.008 175.251 167.514 175.251C168.02 175.251 168.388 174.907 168.388 174.409Z" fill="#202020"/>
<path d="M171.627 173.317V175.615H171.33V175.196C171.169 175.475 170.872 175.637 170.505 175.637C169.92 175.637 169.535 175.309 169.535 174.65V173.319H169.845V174.62C169.845 175.109 170.099 175.359 170.535 175.359C171.015 175.359 171.317 175.049 171.317 174.525V173.319H171.627V173.317Z" fill="#202020"/>
<path d="M173.651 173.3V173.601C173.625 173.601 173.599 173.597 173.577 173.597C173.097 173.597 172.804 173.903 172.804 174.444V175.614H172.494V173.317H172.791V173.767C172.935 173.462 173.227 173.3 173.651 173.3Z" fill="#202020"/>
<path d="M176.188 174.562H174.267C174.301 175.042 174.668 175.361 175.17 175.361C175.45 175.361 175.699 175.26 175.874 175.06L176.048 175.26C175.843 175.505 175.525 175.636 175.162 175.636C174.446 175.636 173.957 175.147 173.957 174.466C173.957 173.785 174.432 173.3 175.079 173.3C175.725 173.3 176.193 173.776 176.193 174.466C176.193 174.492 176.188 174.527 176.188 174.562ZM174.267 174.33H175.896C175.856 173.881 175.529 173.566 175.079 173.566C174.634 173.567 174.307 173.881 174.267 174.33Z" fill="#202020"/>
<path d="M150.652 187.873V189.217H149.452V187.909C148.265 187.837 147.124 187.465 146.465 186.95L147.124 185.486C147.724 185.93 148.588 186.254 149.452 186.337V184.334C148.12 184.01 146.633 183.566 146.633 181.85C146.633 180.579 147.557 179.487 149.452 179.272V177.939H150.652V179.247C151.551 179.319 152.427 179.558 153.087 179.979L152.488 181.454C151.876 181.106 151.252 180.903 150.652 180.83V182.87C151.984 183.181 153.447 183.626 153.447 185.317C153.447 186.566 152.535 187.646 150.652 187.873ZM149.452 182.571V180.867C148.816 181.011 148.564 181.359 148.564 181.755C148.564 182.175 148.924 182.403 149.452 182.571ZM151.515 185.462C151.515 185.042 151.168 184.814 150.652 184.635V186.29C151.251 186.158 151.515 185.845 151.515 185.462Z" fill="#202020"/>
<path d="M160.524 186.194V187.777H154.178V186.517L157.417 183.459C158.161 182.751 158.293 182.319 158.293 181.911C158.293 181.251 157.837 180.867 156.949 180.867C156.23 180.867 155.618 181.143 155.21 181.707L153.795 180.796C154.443 179.848 155.619 179.236 157.13 179.236C159.002 179.236 160.249 180.196 160.249 181.72C160.249 182.535 160.021 183.279 158.845 184.371L156.914 186.194H160.524Z" fill="#202020"/>
<path d="M161.303 183.579C161.303 180.808 162.838 179.236 164.902 179.236C166.977 179.236 168.5 180.808 168.5 183.579C168.5 186.35 166.977 187.922 164.902 187.922C162.838 187.921 161.303 186.35 161.303 183.579ZM166.545 183.579C166.545 181.672 165.874 180.88 164.902 180.88C163.942 180.88 163.27 181.672 163.27 183.579C163.27 185.486 163.942 186.278 164.902 186.278C165.874 186.278 166.545 185.486 166.545 183.579Z" fill="#202020"/>
<path d="M169.447 183.579C169.447 180.808 170.983 179.236 173.045 179.236C175.121 179.236 176.644 180.808 176.644 183.579C176.644 186.35 175.121 187.922 173.045 187.922C170.983 187.921 169.447 186.35 169.447 183.579ZM174.69 183.579C174.69 181.672 174.018 180.88 173.046 180.88C172.087 180.88 171.415 181.672 171.415 183.579C171.415 185.486 172.087 186.278 173.046 186.278C174.017 186.278 174.69 185.486 174.69 183.579Z" fill="#202020"/>
<path d="M175.017 209.16H148.236C144.775 209.16 141.969 206.354 141.969 202.893C141.969 199.431 144.775 196.625 148.236 196.625H175.017C178.478 196.625 181.284 199.431 181.284 202.893C181.284 206.354 178.478 209.16 175.017 209.16Z" fill="#202020"/>
<path d="M153.031 202.226C153.031 203.011 152.462 203.484 151.526 203.484H150.536V204.648H150.146V200.963H151.526C152.462 200.963 153.031 201.436 153.031 202.226ZM152.641 202.226C152.641 201.637 152.252 201.299 151.515 201.299H150.535V203.142H151.515C152.252 203.142 152.641 202.806 152.641 202.226Z" fill="white"/>
<path d="M155.858 202.932V204.647H155.5V204.216C155.332 204.5 155.005 204.674 154.547 204.674C153.921 204.674 153.537 204.347 153.537 203.868C153.537 203.442 153.811 203.084 154.606 203.084H155.485V202.916C155.485 202.442 155.216 202.184 154.701 202.184C154.343 202.184 154.005 202.31 153.779 202.51L153.611 202.231C153.89 201.994 154.301 201.857 154.737 201.857C155.453 201.858 155.858 202.215 155.858 202.932ZM155.484 203.816V203.363H154.616C154.079 203.363 153.905 203.574 153.905 203.858C153.905 204.179 154.163 204.379 154.605 204.379C155.026 204.379 155.337 204.179 155.484 203.816Z" fill="white"/>
<path d="M159.147 201.879L157.763 204.979C157.532 205.521 157.236 205.694 156.842 205.694C156.584 205.694 156.337 205.611 156.168 205.442L156.342 205.163C156.479 205.3 156.647 205.373 156.847 205.373C157.094 205.373 157.263 205.257 157.421 204.91L157.542 204.642L156.306 201.878H156.695L157.737 204.231L158.779 201.878H159.147V201.879Z" fill="white"/>
<path d="M162.301 204.674V205.279H162.038V204.679C161.522 204.653 161.038 204.464 160.779 204.201L160.932 203.9C161.174 204.137 161.595 204.316 162.037 204.343V202.958C161.458 202.816 160.868 202.637 160.868 201.942C160.868 201.437 161.232 201 162.037 200.937V200.331H162.3V200.931C162.695 200.947 163.089 201.063 163.368 201.258L163.237 201.568C162.942 201.379 162.606 201.279 162.3 201.263V202.657C162.895 202.799 163.521 202.967 163.521 203.673C163.522 204.184 163.138 204.627 162.301 204.674ZM162.038 202.589V201.274C161.496 201.321 161.253 201.6 161.253 201.932C161.253 202.332 161.606 202.479 162.038 202.589ZM163.138 203.695C163.138 203.279 162.753 203.137 162.301 203.026V204.342C162.879 204.3 163.138 204.032 163.138 203.695Z" fill="white"/>
<path d="M166.558 204.311V204.648H163.974V204.379L165.506 202.879C165.922 202.469 166.001 202.221 166.001 201.969C166.001 201.542 165.701 201.28 165.138 201.28C164.706 201.28 164.374 201.411 164.132 201.69L163.863 201.459C164.148 201.123 164.606 200.933 165.169 200.933C165.916 200.933 166.39 201.312 166.39 201.927C166.39 202.28 166.279 202.596 165.784 203.081L164.532 204.312H166.558V204.311Z" fill="white"/>
<path d="M167.012 202.806C167.012 201.632 167.627 200.932 168.48 200.932C169.333 200.932 169.954 201.632 169.954 202.806C169.954 203.979 169.333 204.679 168.48 204.679C167.627 204.679 167.012 203.979 167.012 202.806ZM169.564 202.806C169.564 201.821 169.122 201.279 168.48 201.279C167.838 201.279 167.395 201.821 167.395 202.806C167.395 203.79 167.838 204.332 168.48 204.332C169.122 204.332 169.564 203.79 169.564 202.806Z" fill="white"/>
<path d="M170.496 202.806C170.496 201.632 171.112 200.932 171.964 200.932C172.817 200.932 173.438 201.632 173.438 202.806C173.438 203.979 172.817 204.679 171.964 204.679C171.112 204.679 170.496 203.979 170.496 202.806ZM173.048 202.806C173.048 201.821 172.606 201.279 171.964 201.279C171.322 201.279 170.879 201.821 170.879 202.806C170.879 203.79 171.322 204.332 171.964 204.332C172.607 204.332 173.048 203.79 173.048 202.806Z" fill="white"/>
<path d="M121.102 189.434C122.071 204.326 115.171 220.909 115.171 220.909L77.9069 210.415L71.4062 208.583C77.854 199.605 80.9425 181.935 79.2571 167.631C79.1279 166.551 79.0458 165.535 78.9929 164.572C78.3766 152.774 83.2442 149.322 87.3902 144.108C91.8825 138.465 101.976 117.143 101.976 112.099C101.976 107.049 114.601 94.7061 111.794 80.6834C111.794 80.6834 115.611 78.3171 119.451 80.2602C121.19 81.1414 122.933 82.9024 124.331 86.1679C127.619 93.8547 123.004 115.563 119.076 120.89L111.513 152.206C111.513 152.206 114.061 156.604 116.568 164.59C118.518 170.82 120.439 179.222 121.102 189.434Z" fill="white"/>
<path opacity="0.4" d="M78.9929 164.571C81.1008 170.35 83.3443 174.231 83.1505 182.358C82.9567 190.485 78.6234 202.928 79.8624 209.404C79.8624 209.404 78.8818 209.645 77.9069 210.415L71.4062 208.583C77.854 199.605 80.9425 181.935 79.2571 167.631C79.1279 166.55 79.0458 165.534 78.9929 164.571Z" fill="#0F2289"/>
<path opacity="0.4" d="M119.075 120.889L111.512 152.205C111.512 152.205 114.06 156.603 116.567 164.589C116.562 164.583 116.562 164.578 116.556 164.572C111.441 156.315 107.113 153.867 107.113 153.867C110.525 149.774 113.156 119.867 113.156 119.867C113.156 119.867 123.849 107.301 122.821 94.1533C122.346 88.1048 120.889 83.484 119.451 80.2598C121.189 81.1409 122.933 82.9019 124.33 86.1674C127.619 93.8535 123.004 115.562 119.075 120.889Z" fill="#0F2289"/>
<path d="M71.4043 208.582C77.8553 199.606 80.9405 181.936 79.2577 167.632C77.5749 153.327 82.9037 149.747 87.3915 144.104C91.8793 138.462 101.976 117.145 101.976 112.096C101.976 107.047 114.598 94.7067 111.793 80.6827C111.793 80.6827 119.851 75.6904 124.331 86.1691C127.617 93.8552 123.004 115.56 119.077 120.889L111.512 152.205C111.512 152.205 119.585 166.124 121.1 189.434C122.067 204.324 115.168 220.909 115.168 220.909" stroke="#202020" stroke-width="0.248" stroke-miterlimit="10" stroke-linecap="round" stroke-linejoin="round"/>
<path d="M96.3184 232.824C96.3184 232.824 104.8 238.048 109.747 246.303" stroke="#202020" stroke-width="0.248" stroke-miterlimit="10" stroke-linecap="round" stroke-linejoin="round"/>
<path d="M120.143 242.701C120.143 242.701 112.836 243.739 106.233 235.843C102 230.782 89.1514 228.495 86.1934 215.264" stroke="#202020" stroke-width="0.248" stroke-miterlimit="10" stroke-linecap="round" stroke-linejoin="round"/>
<path opacity="0.2" d="M226.326 281.821C207.625 272.875 218.952 265.706 193.222 254.6C167.491 243.494 167.23 234.008 170.335 212.182C173.439 190.355 170.972 167.154 178.462 165.184C185.953 163.214 172.605 133.116 181.329 122.476L224.252 205.964L226.326 281.821Z" fill="black" fill-opacity="0.7"/>
<path d="M296.013 280.951C295.133 278.438 294.24 275.696 293.553 273.212C292.66 269.964 291.962 267.393 290.317 264.398C290.059 263.917 289.777 263.411 289.465 262.871C287.715 259.753 285.32 255.479 283.916 250.234C282.977 246.699 283.899 237.997 284.797 229.577C285.431 223.516 286.03 217.797 285.86 214.556L285.807 213.405C285.366 204.925 284.45 187.274 282.547 182.388C280.71 177.685 278.989 176.98 275.854 175.723C275.531 175.583 275.196 175.453 274.837 175.301C273.663 174.807 271.66 173.774 269.353 172.582C264.15 169.887 257.679 166.533 254.391 166.088C250.052 165.512 245.864 166.363 245.172 166.517C241.12 163.404 234.226 159.4 232.177 159.323C230.492 159.241 226.827 160.292 225.054 160.844C224.643 160.973 224.326 161.073 224.168 161.126C222.688 160.028 221.449 159.205 220.645 158.812C220.557 158.771 220.474 158.736 220.404 158.706C218.125 157.767 214.678 157.732 212.8 157.785C212.23 157.808 211.79 157.843 211.584 157.861C208.043 152.405 204.549 146.974 203.034 144.59C199.869 139.575 190.069 118.946 189.969 118.729C189.945 118.676 189.904 118.642 189.839 118.623C189.839 118.623 189.81 118.606 189.752 118.594C188.988 118.371 183.374 116.944 181.12 122.387C178.653 128.306 182.177 141.313 185.612 146.034C187.268 148.312 191.777 157.584 196.364 167.185C195.184 168.278 185.783 176.968 181.214 178.589C177.474 179.91 178.348 199.083 179.053 214.479C179.317 220.164 179.54 225.055 179.476 227.991C179.346 233.675 189.687 241.509 199.711 249.078C208.772 255.937 218.137 263.024 219.236 268.174C219.541 269.624 220.404 270.798 221.438 272.12C223.164 274.317 225.384 276.906 226.329 281.82C226.605 283.289 228.971 285.215 230.827 288.362H298.75C298.18 286.894 297.112 284.105 296.013 280.951ZM201.913 178.818C205.201 185.706 207.233 189.828 207.715 190.262C208.196 190.703 208.179 192.904 208.161 195.025C208.138 196.898 208.12 198.906 208.355 200.603C207.557 201.308 202.5 205.911 201.479 209.634L197.181 204.572L196.094 188.705C196.745 188.031 201.167 183.363 201.913 178.818Z" fill="white"/>
<path opacity="0.4" d="M276.542 223.068C278.137 237.958 278.16 246.032 279.949 250.342C282.969 257.618 287.42 259.091 287.42 259.091C286.131 256.57 284.818 253.604 283.916 250.232C282.977 246.7 283.898 237.997 284.794 229.575C285.429 223.517 286.033 217.794 285.863 214.551L285.805 213.401C285.365 204.922 284.452 187.273 282.547 182.387C280.713 177.683 278.989 176.979 275.856 175.719C275.531 175.581 275.194 175.451 274.838 175.298C273.662 174.809 271.664 173.774 269.353 172.58C264.15 169.887 257.677 166.532 254.393 166.088C250.052 165.513 245.864 166.359 245.173 166.513C241.12 163.403 234.228 159.399 232.175 159.319C230.492 159.24 225.944 160.566 224.17 161.121C231.904 167.449 243.087 175.316 243.087 175.316C251.918 177.072 250.786 180.907 254.356 183.05C257.589 184.99 260.68 179.315 263.378 178.815C266.94 178.156 270.993 181.935 270.812 186.492C270.311 199.124 275.173 210.288 276.542 223.068Z" fill="#0F2289"/>
<path opacity="0.4" d="M231.906 176.925C231.906 176.925 224.906 171.122 221.555 169.157C218.203 167.191 217.683 160.535 220.318 158.914C220.411 158.857 220.512 158.823 220.644 158.813C220.561 158.772 220.477 158.732 220.403 158.704C218.124 157.763 214.681 157.73 212.801 157.785C216.704 165.003 219.77 170.54 220.607 171.752C223.426 175.827 231.906 176.925 231.906 176.925Z" fill="#0F2289"/>
<path opacity="0.4" d="M221.29 267.339C221.583 265.795 219.041 261.273 217.926 259.441C215.383 255.255 185.905 229.206 190.18 222.253C194.437 215.283 198.348 220.451 201.049 220.897C202.993 221.22 208.313 218.048 208.284 217.784C207.679 212.429 212.623 208.947 212.623 208.947C212.623 208.947 212.165 187.631 211.032 187.995C209.893 188.359 196.287 155.981 196.287 155.981C196.287 155.981 181.912 136.861 182.722 127.942C183.533 119.034 189.763 118.834 189.763 118.834L189.752 118.593C188.988 118.37 183.374 116.943 181.12 122.386C178.653 128.305 182.177 141.312 185.612 146.033C187.268 148.311 191.777 157.583 196.364 167.184C195.184 168.277 185.783 176.967 181.214 178.588C177.474 179.909 178.348 199.082 179.053 214.479C179.317 220.163 179.54 225.054 179.476 227.99C179.346 233.674 189.687 241.508 199.711 249.077C208.772 255.936 218.137 263.023 219.236 268.173C219.541 269.623 220.404 270.797 221.438 272.119C221.267 270.246 221.137 268.155 221.29 267.339ZM201.912 178.817C205.201 185.706 207.232 189.828 207.714 190.262C208.195 190.702 208.178 192.904 208.161 195.024C208.137 196.898 208.119 198.906 208.354 200.602C207.556 201.307 202.5 205.911 201.478 209.634L197.18 204.571L196.093 188.705C196.744 188.031 201.166 183.363 201.912 178.817Z" fill="#0F2289"/>
<path d="M227.867 176.842C227.867 176.842 223.553 175.708 220.603 171.754C217.654 167.8 206.058 149.794 202.844 144.711C199.63 139.628 189.764 118.836 189.764 118.836C189.764 118.836 183.692 116.803 181.328 122.476C178.964 128.15 182.202 140.96 185.797 145.898C189.392 150.835 206.507 188.865 207.866 190.095C209.226 191.324 207.187 201.46 209.907 203.913" stroke="#202020" stroke-width="0.248" stroke-miterlimit="10" stroke-linecap="round" stroke-linejoin="round"/>
<path d="M208.606 200.695C208.606 200.695 202.338 206.155 201.603 210.137L196.952 204.664L195.854 188.619C195.854 188.619 201.464 183 201.772 177.996" stroke="#202020" stroke-width="0.248" stroke-miterlimit="10" stroke-linecap="round" stroke-linejoin="round"/>
<path d="M196.646 167.238C196.646 167.238 186.24 177.056 181.292 178.809C176.343 180.562 179.949 217.347 179.704 228.002C179.458 238.657 217.143 257.209 219.455 268.118C220.375 272.454 224.17 273.34 226.493 281.654" stroke="#202020" stroke-width="0.248" stroke-miterlimit="10" stroke-linecap="round" stroke-linejoin="round"/>
<path d="M211.459 158.097C211.459 158.097 217.122 157.588 220.314 158.913C223.506 160.239 236.471 171.375 239.588 173.503C242.706 175.632 247.419 176.434 248.312 178.725" stroke="#202020" stroke-width="0.248" stroke-miterlimit="10" stroke-linecap="round" stroke-linejoin="round"/>
<path d="M224.129 161.375C224.129 161.375 229.962 159.45 232.162 159.546C234.362 159.643 242.743 164.588 246.49 167.88C250.237 171.171 253.997 172.99 256.253 173.811" stroke="#202020" stroke-width="0.248" stroke-miterlimit="10" stroke-linecap="round" stroke-linejoin="round"/>
<path d="M245.125 166.763C245.125 166.763 249.639 165.681 254.367 166.318C259.095 166.955 270.97 173.941 274.753 175.516C278.535 177.093 280.349 177.382 282.335 182.475C284.32 187.567 285.236 206.921 285.636 214.567C286.036 222.214 282.054 244.123 283.694 250.288C285.335 256.454 288.313 261.204 290.117 264.504" stroke="#202020" stroke-width="0.248" stroke-miterlimit="10" stroke-linecap="round" stroke-linejoin="round"/>
<path d="M195.853 188.619C195.853 188.619 194.912 184.85 193.668 184.367" stroke="#202020" stroke-width="0.248" stroke-miterlimit="10" stroke-linecap="round" stroke-linejoin="round"/>
<path d="M196.951 204.665C196.951 204.665 197.791 208.865 198.715 211.16C199.639 213.455 198.198 216.77 198.198 216.77" stroke="#202020" stroke-width="0.248" stroke-miterlimit="10" stroke-linecap="round" stroke-linejoin="round"/>
<path d="M201.6 210.137C201.447 213.805 205.1 218.093 205.985 217.488" stroke="#202020" stroke-width="0.248" stroke-miterlimit="10" stroke-linecap="round" stroke-linejoin="round"/>
<path d="M220.188 188.619C220.188 188.619 224.105 182.276 227.867 181.967C231.629 181.658 235.966 186.993 238.289 186.493C240.612 185.994 243.526 182.579 247.426 181.954C251.327 181.329 253.155 183.206 256.253 183.361C259.351 183.516 259.661 179.382 263.378 178.817C267.095 178.251 268.334 180.136 270.811 180.587C273.289 181.038 273.913 179.113 275.922 177.996" stroke="#202020" stroke-width="0.248" stroke-miterlimit="10" stroke-linecap="round" stroke-linejoin="round"/>
</svg>
