<svg width="382" height="371" viewBox="0 0 382 371" fill="none" xmlns="http://www.w3.org/2000/svg">
<path d="M239.883 49.8958C216.107 50.3053 197.77 69.7499 177.418 82.0485C146.678 100.625 107.202 104.395 81.2423 129.218C63.4682 146.214 54.6781 171.825 57.1781 196.29C59.6782 220.754 73.0949 243.688 92.526 258.761C104.916 268.372 119.458 274.85 134.298 279.917C149.336 285.052 164.994 288.851 180.884 289.051C202.909 289.329 224.544 282.67 244.466 273.275C258.321 266.741 271.677 258.757 282.573 247.991C292.869 237.82 300.762 225.329 306.169 211.905C319.534 178.722 317.407 140.697 305.822 106.852C296.24 78.8553 272.806 49.3279 239.883 49.8958Z" fill="#A3E154"/>
<path opacity="0.3" d="M239.883 49.8958C216.107 50.3053 197.77 69.7499 177.418 82.0485C146.678 100.625 107.202 104.395 81.2423 129.218C63.4682 146.214 54.6781 171.825 57.1781 196.29C59.6782 220.754 73.0949 243.688 92.526 258.761C104.916 268.372 119.458 274.85 134.298 279.917C149.336 285.052 164.994 288.851 180.884 289.051C202.909 289.329 224.544 282.67 244.466 273.275C258.321 266.741 271.677 258.757 282.573 247.991C292.869 237.82 300.762 225.329 306.169 211.905C319.534 178.722 317.407 140.697 305.822 106.852C296.24 78.8553 272.806 49.3279 239.883 49.8958Z" fill="white"/>
<path opacity="0.1" d="M254.629 186.827C254.458 181.961 254.143 176.771 253.619 171.402C252.915 160.684 251.57 150.667 249.132 144.373C249.132 144.372 249.132 144.371 249.132 144.371C249.132 144.37 249.131 144.369 249.131 144.368L249.12 144.369C235.726 141.625 166.053 146.709 166.003 146.712L165.565 144.776C165.509 144.519 165.449 144.262 165.391 144.006L165.086 142.656L164.997 142.349C164.546 140.528 164.038 138.721 163.44 136.934C163.439 136.934 163.439 136.934 163.439 136.934L163.438 136.933C163.438 136.933 110.621 132.217 93.1019 136.79V136.793C93.1013 136.793 93.1013 136.793 93.1006 136.793C93.1038 136.947 93.1045 137.095 93.1071 137.249L93.1588 141.574C93.2098 149.94 93.016 157.784 93.4495 166.407L93.4501 166.467C93.4475 166.467 93.4456 166.468 93.443 166.468C93.4223 166.468 93.3299 166.471 93.1865 166.496C91.7666 166.68 90.6245 167.657 90.1755 168.944C90.0063 169.43 89.9326 169.959 89.9843 170.506L90.2363 173.194C90.2401 173.237 90.2421 173.278 90.2459 173.322C90.8919 180.183 91.525 186.979 91.525 186.979L91.5328 186.98C91.5547 186.991 91.8635 187.012 92.4146 187.041L95.3151 187.243C89.1413 187.816 82.4125 195.967 82.6929 202.974C82.9739 209.987 76.2342 223.186 77.919 230.767C79.2342 236.687 85.8551 246.2 89.0967 253.428C89.0192 253.872 88.9339 254.35 88.8409 254.863L74.377 283.9C75.344 282.478 84.0495 320.397 124.571 312.367L153.389 265.417C156.198 263.259 159.462 260.417 162.164 257.168C163.396 255.859 164.362 254.589 164.881 253.41C164.882 253.408 164.882 253.407 164.882 253.406C165.92 251.703 166.738 249.927 167.217 248.109C167.345 247.623 167.48 247.133 167.619 246.64C169.971 240.653 173.113 232.479 175.413 226.817C205.754 225.918 237.651 224.064 253.662 220.295C253.674 220.293 253.685 220.292 253.697 220.291C255.245 209.765 255.279 197.947 254.629 186.827ZM98.6995 213.356C98.6995 213.356 98.3171 210.891 98.2512 208.078C98.6052 209.937 98.9883 211.793 99.3972 213.652C99.1672 213.548 98.9359 213.444 98.6995 213.356Z" fill="black"/>
<path d="M71.0781 282.048C71.0781 282.048 84.0505 320.395 124.572 312.366C124.572 312.366 133.562 270.155 141.097 263.941C145.957 259.933 156.689 252.748 158.98 247.55C161.316 242.25 170.486 217.652 172.27 214.679C174.054 211.705 152.941 177.516 152.941 177.516L108.471 200.46L83.7262 244.415C83.7262 244.415 78.9794 272.794 71.0781 282.048Z" fill="white"/>
<path d="M83.2925 247.793C83.2925 247.793 80.1181 271.508 69.6348 283.897" stroke="#202020" stroke-width="0.248" stroke-miterlimit="10" stroke-linecap="round" stroke-linejoin="round"/>
<path d="M124.572 312.367C124.572 312.367 133.515 271.523 141.098 263.941C141.098 263.941 158.228 253.976 161.316 242.25C163.455 234.129 167.343 224.769 169.202 220.52" stroke="#202020" stroke-width="0.248" stroke-miterlimit="10" stroke-linecap="round" stroke-linejoin="round"/>
<path d="M128.179 221.811C127.516 221.399 138.544 230.236 138.973 242.249" stroke="#202020" stroke-width="0.248" stroke-miterlimit="10" stroke-linecap="round" stroke-linejoin="round"/>
<path d="M247.794 214.428C212.083 222.851 97.0695 221.721 97.0695 221.721C96.1005 219.68 94.9312 214.537 93.8007 208.581C91.5397 196.624 89.4273 181.385 89.4273 181.385L85.6224 181.12C85.6224 181.12 84.9893 174.324 84.3433 167.463C83.7037 160.603 87.5474 160.609 87.5474 160.609L87.2697 136.862L87.1986 130.932C104.718 126.358 157.535 131.074 157.535 131.074L159.182 136.798L160.1 140.855L243.227 138.51C250.863 158.219 247.794 214.428 247.794 214.428Z" fill="#0F2289"/>
<path d="M234.393 176.272L179.936 178.886C177.693 178.994 175.788 177.262 175.68 175.019L175.149 163.957C175.041 161.714 176.773 159.809 179.016 159.701L233.473 157.088C235.716 156.98 237.621 158.711 237.729 160.953L238.26 172.016C238.367 174.259 236.636 176.164 234.393 176.272Z" fill="#202020"/>
<path d="M238.51 183.266L238.68 185.106L175.904 187.538L175.852 185.885L238.51 183.266Z" fill="#202020"/>
<path d="M238.821 189.668L238.874 191.321L176.101 193.643L176.049 191.99L238.821 189.668Z" fill="#202020"/>
<path opacity="0.3" d="M243.229 138.512C243.229 138.512 252.496 182.442 247.797 214.431C247.797 214.431 189.219 221.3 169.161 220.192L168.338 209.501L170.016 209.24C170.016 209.24 161.912 148.222 160.1 140.853C160.1 140.853 229.858 135.762 243.229 138.512Z" fill="black"/>
<path opacity="0.8" d="M166.408 209.343L167.109 217.425C167.109 217.425 108.06 220.007 102.871 218.133C97.6818 216.259 103.146 213.252 116.879 212.174C130.611 211.096 166.408 209.343 166.408 209.343Z" fill="white"/>
<path d="M131.154 175.067C134.135 175.067 136.551 172.882 136.551 170.186C136.551 167.489 134.135 165.304 131.154 165.304C128.174 165.304 125.758 167.489 125.758 170.186C125.758 172.882 128.174 175.067 131.154 175.067Z" fill="#202020"/>
<path d="M89.4277 181.382C90.7856 195.592 93.0667 208.017 97.0686 221.723C122.113 221.509 147.154 221.227 172.188 220.427C197.225 219.626 222.96 217.938 247.796 214.431C247.796 214.431 252.244 175.181 243.229 138.512C233.27 136.44 160.376 140.846 160.376 140.846" stroke="#202020" stroke-width="0.248" stroke-miterlimit="10" stroke-linecap="round" stroke-linejoin="round"/>
<path d="M166.407 209.343L167.108 217.425L110.929 218.721C108.609 218.918 105 219.222 102.869 218.133C101.896 217.635 101.198 216.418 101.656 215.425C102.069 214.532 103.16 214.218 104.124 214.02C111 212.607 118.013 212.009 125.013 211.492C139.993 210.386 154.999 209.635 170.015 209.24C169.704 209.249 166.036 179.015 165.631 176.227C164.041 165.305 162.529 154.345 160.567 143.484C159.809 139.283 158.894 135.13 157.536 131.076C134.384 129.421 110.208 127.888 87.1973 130.935C87.4072 141.188 87.0293 150.339 87.5487 160.608" stroke="#202020" stroke-width="0.248" stroke-miterlimit="10" stroke-linecap="round" stroke-linejoin="round"/>
<path d="M96.211 218.676C96.211 218.676 96.0204 218.179 95.9629 217.413" stroke="#202020" stroke-width="0.248" stroke-linecap="round" stroke-linejoin="round"/>
<path d="M96.3359 214.937C97.1971 212.787 99.7759 210.361 106.781 209.582C119.565 208.161 147.438 205.605 163.784 204.98" stroke="#202020" stroke-width="0.248" stroke-linecap="round" stroke-linejoin="round" stroke-dasharray="0.97 0.97"/>
<path d="M165.051 204.935C165.491 204.921 165.921 204.907 166.341 204.896C166.282 204.469 166.223 204.041 166.164 203.613" stroke="#202020" stroke-width="0.248" stroke-linecap="round" stroke-linejoin="round"/>
<path d="M165.82 201.13C162.879 179.981 159.624 158.993 155.895 137.966" stroke="#202020" stroke-width="0.248" stroke-linecap="round" stroke-linejoin="round" stroke-dasharray="0.96 0.96"/>
<path d="M155.675 136.731C155.599 136.306 155.523 135.882 155.448 135.457C155.448 135.457 154.997 135.422 154.162 135.362" stroke="#202020" stroke-width="0.248" stroke-linecap="round" stroke-linejoin="round"/>
<path d="M151.544 135.181C140.802 134.463 110.252 132.678 89.8691 134.072" stroke="#202020" stroke-width="0.248" stroke-linecap="round" stroke-linejoin="round" stroke-dasharray="1.01 1.01"/>
<path d="M88.5538 134.168C88.1197 134.202 87.6914 134.236 87.2676 134.273" stroke="#202020" stroke-width="0.248" stroke-linecap="round" stroke-linejoin="round"/>
<path d="M85.6262 181.119L84.0829 164.648C83.8871 162.562 85.4589 160.73 87.5506 160.609C97.0455 160.06 121.608 158.77 131.035 159.525C135.563 159.887 140.471 161.338 142.677 165.667C144.494 169.234 144.769 174.584 141.709 177.516C137.057 181.973 128.238 181.63 122.24 181.842C111.066 182.236 85.6352 181.214 85.6262 181.119Z" stroke="#202020" stroke-width="0.248" stroke-miterlimit="10" stroke-linecap="round" stroke-linejoin="round"/>
<path d="M144.027 171.051C144.046 170.591 146.375 180.513 137.783 183.786C129.19 187.059 89.4277 186.031 89.4277 186.031V181.381C89.4277 181.381 117.56 181.971 122.239 181.841C126.918 181.711 143.52 183.273 144.027 171.051Z" fill="#202020"/>
<path d="M135.762 226.478C135.762 226.478 142.788 230.594 145.422 238.322" stroke="#202020" stroke-width="0.248" stroke-miterlimit="10" stroke-linecap="round" stroke-linejoin="round"/>
<path d="M84.2734 163.085C84.2734 163.085 118.746 161.463 127.516 161.756C136.286 162.049 140.585 163.976 141.461 169.474C142.337 174.973 137.017 178.422 132.778 179.005C128.539 179.589 85.6262 179.84 85.6262 179.84" stroke="#202020" stroke-width="0.248" stroke-miterlimit="10" stroke-linecap="round" stroke-linejoin="round" stroke-dasharray="0.99 0.99"/>
<path d="M107.961 229.682C107.961 229.682 102.626 211.149 92.7967 207.498C92.7967 207.498 90.831 194.849 95.0435 194.153C99.2554 193.457 111.05 185.665 107.961 175.942C104.872 166.218 95.6049 180.82 89.4272 181.382C83.2495 181.944 76.5098 190.102 76.7908 197.115C77.0718 204.128 70.3321 217.326 72.0169 224.908C73.7016 232.49 84.0919 245.969 84.9343 252.989" fill="white"/>
<path d="M107.961 229.682C107.961 229.682 102.626 211.149 92.7967 207.498C92.7967 207.498 90.831 194.849 95.0435 194.153C99.2554 193.457 111.05 185.665 107.961 175.942C104.872 166.218 95.6049 180.82 89.4272 181.382C83.2495 181.944 76.5098 190.102 76.7908 197.115C77.0718 204.128 70.3321 217.326 72.0169 224.908C73.7016 232.49 84.0919 245.969 84.9343 252.989" stroke="#202020" stroke-width="0.248" stroke-miterlimit="10" stroke-linecap="round" stroke-linejoin="round"/>
<path d="M95.0352 178.528C95.0352 178.528 102.431 179.871 106.454 175.18C110.476 170.489 105.845 170.186 105.845 170.186L95.0352 178.528Z" fill="white" stroke="#202020" stroke-width="0.248" stroke-miterlimit="10" stroke-linecap="round" stroke-linejoin="round"/>
<path d="M81.8242 188.996C83.1692 189.085 84.4896 189.517 85.6253 190.243" stroke="#202020" stroke-width="0.248" stroke-miterlimit="10" stroke-linecap="round" stroke-linejoin="round"/>
<path d="M81.6016 191.684C82.9381 191.807 84.2366 192.321 85.296 193.146" stroke="#202020" stroke-width="0.248" stroke-miterlimit="10" stroke-linecap="round" stroke-linejoin="round"/>
<path d="M101.564 216.511C101.564 216.511 133.236 214.876 141.556 215.351" stroke="#202020" stroke-width="0.248" stroke-miterlimit="10" stroke-linecap="round" stroke-linejoin="round"/>
<path d="M133.85 212.938C133.85 212.938 141.815 212.318 146.779 212.938" stroke="#202020" stroke-width="0.248" stroke-miterlimit="10" stroke-linecap="round" stroke-linejoin="round"/>
<path d="M154.027 215.265H166.92" stroke="#202020" stroke-width="0.248" stroke-miterlimit="10" stroke-linecap="round" stroke-linejoin="round"/>
<path d="M161.824 144.47C161.824 144.47 218.434 139.417 241.18 142.302C241.18 142.302 247.316 153.587 245.984 211.436C245.984 211.436 209.165 216.511 168.927 217.165" stroke="#202020" stroke-width="0.248" stroke-miterlimit="10" stroke-linecap="round" stroke-linejoin="round" stroke-dasharray="0.99 0.99"/>
<g opacity="0.1">
<path d="M315.069 224.511C313.461 217.671 311.103 215.099 308.743 213.122C308.743 213.122 308.688 209.233 305.657 207.036C304.889 206.348 303.995 205.715 303.052 205.108C300.207 202.976 297.071 200.561 297.071 200.561C295.598 196.297 293.604 191.136 291.45 186.058L291.558 187.213C289.35 181.82 287.185 176.448 286.576 174.667C286.572 174.656 286.567 174.642 286.563 174.63C287.193 176.347 287.861 178.004 288.569 179.538L280.476 150.952C280.283 149.801 280.087 148.669 279.883 147.58C279.5 144.365 278.441 138.262 275.902 137.835C275.809 137.816 275.716 137.806 275.62 137.807C275.62 137.807 272.632 136.51 272.632 141.819C269.071 143.005 267.695 145.664 267.35 148.854C267.181 149.771 267.141 150.778 267.29 151.888C267.351 153.057 267.49 154.252 267.666 155.442L256.256 140.421L255.143 138.956L241.011 120.35L221.998 95.3217C219.023 91.4095 213.441 90.6433 209.529 93.6182L185.959 111.532L176.75 118.524C169.687 122.2 171.531 129.462 173.488 132.038L214.617 186.181C214.213 186.136 213.98 186.15 213.98 186.15C213.98 186.15 212.803 183.375 209.896 183.818C209.315 183.837 208.733 184.019 208.164 184.392C207.695 184.63 207.317 184.99 207.011 185.444C206.716 185.795 206.426 186.201 206.145 186.681C204.662 189.216 206.031 195.41 208.171 202.979C208.306 203.468 208.441 203.938 208.571 204.381C208.577 204.403 208.585 204.429 208.591 204.452C208.771 205.074 208.954 205.704 209.14 206.341C211.233 213.605 215.15 227.861 215.872 234.848C215.923 235.525 215.956 236.185 215.971 236.832C216.018 244.88 212.444 258.36 213.98 263.924C214.182 264.655 214.385 265.357 214.596 266.045C215.737 269.766 216.761 273.286 218.555 276.784C220.739 281.043 223.343 285.135 225.775 289.262C230.247 296.849 234.875 304.345 239.654 311.743C241.852 315.145 244.432 318.243 246.926 321.448C248.066 322.912 250.563 325.118 250.997 326.998C250.997 326.998 273.108 328.826 285.488 320.962L284.322 303.368L292.621 255.657C294.992 252.063 302.285 245.032 303.776 242.807C304.527 241.703 305.264 240.608 305.98 239.531C311.442 234.438 314.177 230.462 315.374 225.894C315.374 225.891 315.288 225.369 315.069 224.511ZM237.635 233.847C237.634 233.843 237.632 233.838 237.631 233.834C237.633 233.84 237.635 233.845 237.637 233.85C237.637 233.85 237.635 233.848 237.635 233.847ZM238.518 234.935L238.412 234.724C239.429 235.217 241.882 236.226 245.507 236.792C242.941 236.494 240.028 236.084 238.518 234.935ZM247.833 237.071H247.831C248.217 237.104 248.614 237.13 249.019 237.152C248.662 237.154 248.269 237.13 247.833 237.071ZM238.273 234.447L236.79 231.5C234.719 225.569 230.05 211.591 230.031 211.533C230.03 211.532 230.03 211.531 230.029 211.529C230.026 211.514 228.81 205.763 226.385 199.74C228.544 200.495 231.028 200.19 232.985 198.703L244.288 190.117C245.455 190.821 246.653 191.453 247.823 192.01L258.408 200.288L250.011 234.805L238.273 234.447ZM281.133 154.949V154.947C282.007 159.074 283.4 165.002 285.237 170.747C283.851 166.606 282.131 160.993 281.133 154.949Z" fill="black"/>
<path d="M233.15 320.807L233.219 321.112C233.219 321.112 233.196 321.001 233.15 320.807Z" fill="black"/>
</g>
<path d="M272.409 156.218C273.08 155.789 282.526 150.636 287.249 166.094C291.972 181.551 297.554 207.859 297.554 207.859L286.291 210.065C286.291 210.065 275.853 204.51 266.499 190.598C266.499 190.598 253.385 187.199 247.676 179.123C242.487 171.783 258.453 144.841 258.453 144.841L272.409 156.218Z" fill="white"/>
<path d="M268.346 175.457C271.138 179.644 276.423 188.448 283.554 191.222" stroke="#202020" stroke-width="0.248" stroke-miterlimit="10" stroke-linecap="round" stroke-linejoin="round"/>
<path d="M260.451 179.96C261.769 180.483 265.004 182.339 266.5 182.41C266.5 182.41 273.081 195.442 283.951 199.671" stroke="#202020" stroke-width="0.248" stroke-miterlimit="10" stroke-linecap="round" stroke-linejoin="round"/>
<path d="M254.412 184.757C258.453 188.137 263.261 190.445 266.499 190.598C266.499 190.598 273.081 203.63 283.951 207.859" stroke="#202020" stroke-width="0.248" stroke-miterlimit="10" stroke-linecap="round" stroke-linejoin="round"/>
<path d="M278.577 166.878L242.854 194.014C239.752 196.37 235.328 195.766 232.972 192.665L183.355 127.348C180.999 124.247 181.603 119.823 184.704 117.467L220.428 90.3306C223.529 87.9746 227.953 88.5786 230.309 91.6801L279.926 156.996C282.283 160.098 281.678 164.522 278.577 166.878Z" fill="#202020"/>
<path d="M277.545 165.472L244.767 190.378C240.847 193.353 235.272 192.594 232.298 188.674L184.915 126.296C184.124 125.253 183.594 124.087 183.326 122.881C182.568 119.589 183.749 116.011 186.618 113.835L195.828 106.842L219.397 88.9287C223.309 85.9539 228.892 86.72 231.866 90.6322L250.88 115.66L265.012 134.266L279.249 153.011C282.224 156.923 281.457 162.506 277.545 165.472Z" fill="#0F2289"/>
<path opacity="0.1" d="M250.878 115.66L195.826 106.842L219.395 88.9287C223.308 85.9539 228.89 86.72 231.865 90.6322L250.878 115.66Z" fill="black"/>
<path opacity="0.1" d="M277.544 165.472L244.765 190.378C240.845 193.352 235.271 192.594 232.296 188.674L184.913 126.296C184.123 125.252 183.593 124.087 183.324 122.881L266.123 135.732L279.247 153.011C282.222 156.922 281.456 162.505 277.544 165.472Z" fill="black"/>
<path d="M234.273 108.679L228.482 113.078C227.324 113.957 225.672 113.732 224.793 112.574L217.783 103.345C216.903 102.188 217.129 100.536 218.286 99.6565L224.078 95.2572C225.236 94.3774 226.887 94.6035 227.767 95.7611L234.777 104.99C235.656 106.147 235.431 107.799 234.273 108.679Z" fill="#A3E154" stroke="#202020" stroke-width="0.248" stroke-miterlimit="10" stroke-linecap="round" stroke-linejoin="round"/>
<path d="M221.307 97.3604L231.298 110.937" stroke="#202020" stroke-width="0.248" stroke-miterlimit="10" stroke-linecap="round" stroke-linejoin="round"/>
<path d="M221.307 107.985L231.298 100.411" stroke="#202020" stroke-width="0.248" stroke-miterlimit="10" stroke-linecap="round" stroke-linejoin="round"/>
<path d="M240.658 186.311L238.955 187.566L218.148 160.174L219.836 158.895L240.658 186.311Z" fill="#202020"/>
<path d="M243.544 184.176L241.841 185.439L221.01 158.007L222.689 156.728L243.544 184.176Z" fill="#202020"/>
<path d="M246.428 182.049L244.725 183.304L223.861 155.839L225.548 154.56L246.428 182.049Z" fill="#202020"/>
<path d="M249.313 179.914L247.61 181.168L227.023 154.062L228.702 152.783L249.313 179.914Z" fill="#202020"/>
<path d="M252.427 177.616L250.724 178.871L230.105 151.723L231.792 150.444L252.427 177.616Z" fill="#202020"/>
<path d="M252.427 145.673L250.724 146.929L230.105 119.781L231.792 118.502L252.427 145.673Z" fill="#202020"/>
<path d="M207.519 98.0342L204.881 100.038L262.989 176.533L265.627 174.529L207.519 98.0342Z" fill="#202020"/>
<path d="M277.545 165.472L244.767 190.378C240.847 193.353 235.272 192.594 232.298 188.674L184.915 126.296C184.124 125.253 183.594 124.087 183.326 122.881C182.568 119.589 183.749 116.011 186.618 113.835L195.828 106.842L219.397 88.9287C223.309 85.9539 228.892 86.72 231.866 90.6322L250.88 115.66L265.012 134.266L279.249 153.011C282.224 156.923 281.457 162.506 277.545 165.472Z" stroke="#202020" stroke-width="0.248" stroke-miterlimit="10" stroke-linecap="round" stroke-linejoin="round"/>
<path d="M250.995 326.994C250.995 326.994 289.147 340.57 300.69 311.008C300.69 311.008 282.634 289.059 292.491 271.1C298.696 259.797 315.847 234.841 315.847 234.841C315.847 234.841 323.009 228.039 325.241 221.203C325.241 221.203 324.014 213.59 318.611 208.434C318.611 208.434 318.556 204.545 315.525 202.348C312.495 200.151 306.94 195.873 306.94 195.873C306.94 195.873 297.804 173.958 296.444 169.979C295.085 166 292.367 158.526 291.001 150.261C289.636 141.996 288.38 133.091 285.487 133.119C285.487 133.119 282.499 131.823 282.499 137.131C282.499 137.131 276.237 140.356 277.157 147.194C278.077 154.033 278.934 157.559 278.69 161.409C278.446 165.259 279.677 178.6 282.767 182.784C282.767 182.784 283.799 201.52 285.344 206.399C285.391 206.549 285.439 206.685 285.487 206.807C287.111 210.931 270.844 226.866 262.04 231.131C262.04 231.131 261.12 232.852 257.702 232.383C254.283 231.913 248.5 231.692 247.503 229.159C246.507 226.626 239.898 206.842 239.898 206.842C239.898 206.842 234.543 181.458 223.846 181.46C223.846 181.46 222.219 177.58 218.03 179.702C213.842 181.824 216.584 193.372 218.437 199.69C220.291 206.009 224.987 222.619 225.75 230.261C226.514 237.904 222.183 253.21 223.846 259.233C225.508 265.255 227.278 269.32 232.474 279.178C237.669 289.036 249.169 318.4 250.995 326.994Z" fill="white"/>
<path d="M250.996 326.994C250.996 326.994 242.831 296.253 230.825 276.381C218.819 256.51 225.857 249.471 225.857 232.912C225.857 216.352 212.378 188.2 216.013 181.99C219.647 175.78 224.615 180.748 226.685 186.544C228.755 192.34 225.857 195.652 220.061 196.066" stroke="#202020" stroke-width="0.248" stroke-miterlimit="10" stroke-linecap="round" stroke-linejoin="round"/>
<path d="M223.846 181.46C223.846 181.46 230.812 181.039 235.098 192.182C239.383 203.326 246.241 231.612 253.384 240.184" stroke="#202020" stroke-width="0.248" stroke-miterlimit="10" stroke-linecap="round" stroke-linejoin="round"/>
<path d="M247.746 229.747C247.786 229.836 257.724 235.378 273.153 230.521" stroke="#202020" stroke-width="0.248" stroke-miterlimit="10" stroke-linecap="round" stroke-linejoin="round"/>
<path d="M225.168 214.167C226.689 212.259 229.288 211.274 231.693 211.693" stroke="#202020" stroke-width="0.248" stroke-miterlimit="10" stroke-linecap="round" stroke-linejoin="round"/>
<path d="M226.494 217.675C227.802 216.059 230.095 215.313 232.103 215.85" stroke="#202020" stroke-width="0.248" stroke-miterlimit="10" stroke-linecap="round" stroke-linejoin="round"/>
<path d="M282.499 137.131C272.356 140.509 279.903 155.824 278.689 161.408C277.476 166.992 280.632 177.699 283.06 183.501C283.06 190.299 285.487 206.807 285.487 206.807C283.988 212.055 271.482 227.537 259.33 232.383" stroke="#202020" stroke-width="0.248" stroke-miterlimit="10" stroke-linecap="round" stroke-linejoin="round"/>
<path d="M289.94 144.841C289.94 144.841 289.187 133.118 285.486 133.118C281.785 133.118 282.007 141.018 283.553 146.88C285.097 152.741 291.067 151.875 289.94 144.841Z" stroke="#202020" stroke-width="0.248" stroke-miterlimit="10" stroke-linecap="round" stroke-linejoin="round"/>
<path d="M289.941 144.841C289.941 144.841 293.095 163.274 298.438 174.85" stroke="#202020" stroke-width="0.248" stroke-miterlimit="10" stroke-linecap="round" stroke-linejoin="round"/>
<path d="M304.733 218.011C307.315 213.828 308.462 209.867 309.42 204.828C309.177 201.671 305.554 191.356 301.318 181.368" stroke="#202020" stroke-width="0.248" stroke-miterlimit="10" stroke-linecap="round" stroke-linejoin="round"/>
<path d="M307.27 196.842C311.459 199.996 318.755 202.416 317.91 207.859C317.116 212.963 315.141 218.336 312.29 223.288" stroke="#202020" stroke-width="0.248" stroke-miterlimit="10" stroke-linecap="round" stroke-linejoin="round"/>
<path d="M301.62 312.366C301.62 312.366 287.015 292.086 289.94 278.082C292.091 267.779 305.926 249.765 315.847 234.841C321.31 229.747 324.043 225.771 325.241 221.203C323.487 212.579 320.649 210.064 317.91 207.858" stroke="#202020" stroke-width="0.248" stroke-miterlimit="10" stroke-linecap="round" stroke-linejoin="round"/>
<path d="M305.518 200.188C302.277 199.259 298.655 199.752 295.781 201.515" stroke="#202020" stroke-width="0.248" stroke-miterlimit="10" stroke-linecap="round" stroke-linejoin="round"/>
<path d="M304.717 203.66C302.75 203.353 300.684 203.716 298.939 204.676" stroke="#202020" stroke-width="0.248" stroke-miterlimit="10" stroke-linecap="round" stroke-linejoin="round"/>
</svg>
