<svg width="44" height="44" viewBox="0 0 44 44" fill="none" xmlns="http://www.w3.org/2000/svg">
<path d="M41.7743 19.0038C42.1678 21.6005 42.0459 24.2494 41.4157 26.7991C40.7854 29.3488 39.6592 31.7494 38.1012 33.8639C36.5432 35.9783 34.584 37.7652 32.3355 39.1224C30.0869 40.4797 27.593 41.3808 24.9962 41.7743" stroke="#DADEF0" stroke-width="3" stroke-linecap="round" stroke-linejoin="round"/>
<path d="M2.06158 23.5682C1.69209 18.8704 2.99324 14.193 5.73559 10.3609C8.47793 6.52876 12.4853 3.78801 17.0511 2.62197C21.6168 1.45593 26.4477 1.93949 30.6917 3.98738C34.9357 6.03527 38.3204 9.51596 40.2487 13.8156" stroke="#0F2289" stroke-width="3" stroke-linecap="round" stroke-linejoin="round"/>
<path d="M19.3865 41.8285C15.6881 41.341 12.1997 39.8289 9.31553 37.463C6.43137 35.0971 4.26638 31.9717 3.0652 28.44" stroke="#0F2289" stroke-width="3" stroke-linecap="round" stroke-linejoin="round"/>
<path d="M9.63 28V25.786L13.788 22.546C14.778 21.772 15.876 20.62 15.876 19.342C15.876 18.388 15.192 17.542 13.752 17.542C12.348 17.542 11.106 18.442 11.646 20.566L9.756 20.404C9.252 17.668 10.764 15.868 13.806 15.868C16.344 15.868 17.856 17.128 17.856 19.234C17.856 21.34 16.452 22.618 14.814 23.86L11.826 26.254V26.326L18.108 26.308V28H9.63ZM18.4528 29.386L22.8628 15.598H24.7528L20.3428 29.386H18.4528ZM29.3086 28.252C26.1946 28.252 24.7186 26.92 24.8986 24.598L26.7886 24.31C26.5006 26.056 28.0306 26.614 29.4166 26.614C30.8926 26.614 32.1526 26.056 32.1526 24.544C32.1526 22.69 30.4966 22.114 27.3466 22.294V21.016L31.2346 17.866V17.794H25.4386V16.102H33.5026V17.902L29.5066 21.106V21.214C32.8726 21.16 34.1866 22.636 34.1866 24.652C34.1866 26.83 32.5306 28.252 29.3086 28.252Z" fill="#868FB6"/>
</svg>
