<svg width="156" height="66" viewBox="0 0 156 66" fill="none" xmlns="http://www.w3.org/2000/svg">
<path d="M98.8667 22.2255H109.893V26.9793C112.072 23.2158 115.571 21.037 119.797 21.037C127.786 21.037 133.134 28.0357 133.134 38.5997C133.134 49.2297 127.786 56.2944 119.797 56.2944C115.571 56.2944 112.072 54.1155 109.893 50.2861V66H98.8667V22.2255ZM121.909 38.5997C121.909 33.3837 119.665 30.3465 115.901 30.3465C112.138 30.3465 109.893 33.3837 109.893 38.5997C109.893 43.8817 112.138 46.9848 115.901 46.9848C119.665 46.9848 121.909 43.8817 121.909 38.5997Z" fill="white"/>
<path d="M96.1297 44.4758C96.1297 48.8995 96.7239 53.1251 97.6483 55.2379H86.5561C85.9619 53.9834 85.5657 52.1347 85.3016 50.22C83.3869 53.9174 79.8876 56.0962 75.2658 56.0962C68.9274 56.0962 64.2397 51.6726 64.2397 45.4662C64.2397 39.1939 67.805 35.6945 74.6056 35.3644L82.5946 34.9683C84.4433 34.7702 85.1696 34.176 85.1696 32.7894V32.6574C85.1696 30.6766 83.0568 29.026 80.5478 29.026C77.7087 29.026 76.1241 30.3465 75.794 32.7894H64.5038C65.032 25.7248 71.3703 21.169 80.6799 21.169C89.9894 21.169 96.1297 26.385 96.1297 34.242V44.4758ZM75.3979 44.3438C75.3979 46.2585 77.1145 47.513 79.6235 47.513C82.6606 47.513 85.1696 45.2681 85.1696 42.3631V41.0426L78.7651 41.3727C76.5863 41.4387 75.3979 42.5611 75.3979 44.3438Z" fill="white"/>
<path d="M28.5966 38.5997C28.5966 28.1017 35.067 21.5652 45.3009 21.5652C55.5348 21.5652 62.9296 28.894 62.9296 39.1279V41.3067H39.9529C40.5471 45.2682 42.5278 47.315 45.8291 47.315C48.6021 47.315 50.3188 46.1265 50.781 43.8817H62.5334C61.2789 52.0028 55.2707 55.7662 45.697 55.7662C35.1991 55.7662 28.5966 49.1637 28.5966 38.5997ZM45.4329 29.2902C42.7259 29.2902 40.8772 30.7427 40.1509 34.3081H51.1111C50.781 31.2049 48.6021 29.2902 45.4329 29.2902Z" fill="white"/>
<path d="M27.7965 55.2379H0V12.3217H10.9601V44.938H27.7965V55.2379Z" fill="white"/>
<path d="M154.598 12.3242C154.86 14.0536 154.779 15.8178 154.359 17.5158C153.939 19.2139 153.189 20.8126 152.151 22.2208C151.114 23.629 149.809 24.819 148.312 25.7229C146.814 26.6269 145.153 27.227 143.424 27.489" stroke="white" stroke-width="1.99795" stroke-linecap="round" stroke-linejoin="round"/>
<path d="M128.15 15.3641C127.904 12.2354 128.77 9.12036 130.596 6.56822C132.423 4.01608 135.092 2.19078 138.132 1.41422C141.173 0.637657 144.39 0.959702 147.217 2.32356C150.043 3.68743 152.297 6.00551 153.582 8.86901" stroke="white" stroke-width="1.99795" stroke-linecap="round" stroke-linejoin="round"/>
<path d="M139.688 27.5251C137.225 27.2005 134.901 26.1934 132.981 24.6178C131.06 23.0421 129.618 20.9607 128.818 18.6086" stroke="white" stroke-width="1.99795" stroke-linecap="round" stroke-linejoin="round"/>
<circle cx="141.428" cy="14.3197" r="9.98976" fill="white"/>
</svg>
