<svg width="29" height="29" viewBox="0 0 29 29" fill="none" xmlns="http://www.w3.org/2000/svg">
<path d="M27.5976 12.3242C27.8597 14.0536 27.7785 15.8178 27.3588 17.5158C26.9391 19.2139 26.189 20.8126 25.1514 22.2208C24.1138 23.629 22.809 24.819 21.3115 25.7229C19.814 26.6269 18.1531 27.227 16.4237 27.489" stroke="white" stroke-width="1.99795" stroke-linecap="round" stroke-linejoin="round"/>
<path d="M1.14959 15.3641C0.903517 12.2354 1.77007 9.12036 3.59642 6.56822C5.42278 4.01608 8.09164 2.19078 11.1324 1.41422C14.1731 0.637657 17.3903 0.959702 20.2168 2.32356C23.0432 3.68743 25.2974 6.00551 26.5816 8.86901" stroke="white" stroke-width="1.99795" stroke-linecap="round" stroke-linejoin="round"/>
<path d="M12.6877 27.5251C10.2246 27.2005 7.90141 26.1934 5.98061 24.6178C4.0598 23.0421 2.61796 20.9607 1.81799 18.6086" stroke="white" stroke-width="1.99795" stroke-linecap="round" stroke-linejoin="round"/>
<circle cx="14.4283" cy="14.3197" r="9.98976" fill="white"/>
</svg>
