<svg width="44" height="44" viewBox="0 0 44 44" fill="none" xmlns="http://www.w3.org/2000/svg">
<path d="M41.7743 19.0038C42.1678 21.6005 42.0459 24.2494 41.4157 26.7991C40.7854 29.3488 39.6592 31.7494 38.1012 33.8639C36.5432 35.9783 34.584 37.7652 32.3355 39.1224C30.0869 40.4797 27.593 41.3808 24.9962 41.7743" stroke="#DADEF0" stroke-width="3" stroke-linecap="round" stroke-linejoin="round"/>
<path d="M2.06158 23.5682C1.69209 18.8704 2.99324 14.193 5.73559 10.3609C8.47793 6.52876 12.4853 3.78801 17.0511 2.62197C21.6168 1.45593 26.4477 1.93949 30.6917 3.98738C34.9357 6.03527 38.3204 9.51596 40.2487 13.8156" stroke="#0F2289" stroke-width="3" stroke-linecap="round" stroke-linejoin="round"/>
<path d="M19.3865 41.8285C15.6881 41.341 12.1997 39.8289 9.31553 37.463C6.43137 35.0971 4.26638 31.9717 3.0652 28.44" stroke="#DADEF0" stroke-width="3" stroke-linecap="round" stroke-linejoin="round"/>
<path d="M13.89 28V19H12.324V17.326C13.224 17.326 14.016 17.182 14.232 16.12H15.87V28H13.89ZM16.5661 29.386L20.9761 15.598H22.8661L18.4561 29.386H16.5661ZM27.4219 28.252C24.3079 28.252 22.8319 26.92 23.0119 24.598L24.9019 24.31C24.6139 26.056 26.1439 26.614 27.5299 26.614C29.0059 26.614 30.2659 26.056 30.2659 24.544C30.2659 22.69 28.6099 22.114 25.4599 22.294V21.016L29.3479 17.866V17.794H23.5519V16.102H31.6159V17.902L27.6199 21.106V21.214C30.9859 21.16 32.2999 22.636 32.2999 24.652C32.2999 26.83 30.6439 28.252 27.4219 28.252Z" fill="#868FB6"/>
</svg>
