<svg width="44" height="44" viewBox="0 0 44 44" fill="none" xmlns="http://www.w3.org/2000/svg">
<path d="M41.7743 19.0038C42.1678 21.6005 42.0459 24.2494 41.4157 26.7991C40.7854 29.3488 39.6592 31.7494 38.1012 33.8639C36.5432 35.9783 34.584 37.7652 32.3355 39.1224C30.0869 40.4797 27.593 41.3808 24.9962 41.7743" stroke="#0F2289" stroke-width="3" stroke-linecap="round" stroke-linejoin="round"/>
<path d="M2.06158 23.5682C1.69209 18.8704 2.99324 14.193 5.73559 10.3609C8.47793 6.52876 12.4853 3.78801 17.0511 2.62197C21.6168 1.45593 26.4477 1.93949 30.6917 3.98738C34.9357 6.03527 38.3204 9.51596 40.2487 13.8156" stroke="#0F2289" stroke-width="3" stroke-linecap="round" stroke-linejoin="round"/>
<path d="M19.3865 41.8285C15.6881 41.341 12.1997 39.8289 9.31553 37.463C6.43137 35.0971 4.26638 31.9717 3.0652 28.44" stroke="#0F2289" stroke-width="3" stroke-linecap="round" stroke-linejoin="round"/>
<path d="M13.752 28.252C10.638 28.252 9.162 26.92 9.342 24.598L11.232 24.31C10.944 26.056 12.474 26.614 13.86 26.614C15.336 26.614 16.596 26.056 16.596 24.544C16.596 22.69 14.94 22.114 11.79 22.294V21.016L15.678 17.866V17.794H9.882V16.102H17.946V17.902L13.95 21.106V21.214C17.316 21.16 18.63 22.636 18.63 24.652C18.63 26.83 16.974 28.252 13.752 28.252ZM18.6989 29.386L23.1089 15.598H24.9989L20.5889 29.386H18.6989ZM29.5547 28.252C26.4407 28.252 24.9647 26.92 25.1447 24.598L27.0347 24.31C26.7467 26.056 28.2767 26.614 29.6627 26.614C31.1387 26.614 32.3987 26.056 32.3987 24.544C32.3987 22.69 30.7427 22.114 27.5927 22.294V21.016L31.4807 17.866V17.794H25.6847V16.102H33.7487V17.902L29.7527 21.106V21.214C33.1187 21.16 34.4327 22.636 34.4327 24.652C34.4327 26.83 32.7767 28.252 29.5547 28.252Z" fill="#868FB6"/>
</svg>
