<svg width="20" height="20" viewBox="0 0 20 20" fill="none" xmlns="http://www.w3.org/2000/svg">
<path d="M1.6665 9.16667V7.5C1.6665 4.58334 3.33317 3.33334 5.83317 3.33334H14.1665C16.6665 3.33334 18.3332 4.58334 18.3332 7.5V12.5C18.3332 15.4167 16.6665 16.6667 14.1665 16.6667H9.99984" stroke="#0F2289" stroke-width="1.5" stroke-miterlimit="10" stroke-linecap="round" stroke-linejoin="round"/>
<path d="M9.99984 12.0833C11.1504 12.0833 12.0832 11.1506 12.0832 10C12.0832 8.8494 11.1504 7.91666 9.99984 7.91666C8.84924 7.91666 7.9165 8.8494 7.9165 10C7.9165 11.1506 8.84924 12.0833 9.99984 12.0833Z" stroke="#0F2289" stroke-width="1.5" stroke-miterlimit="10" stroke-linecap="round" stroke-linejoin="round"/>
<path d="M15.4165 7.91666V12.0833" stroke="#0F2289" stroke-width="1.5" stroke-miterlimit="10" stroke-linecap="round" stroke-linejoin="round"/>
<path d="M1.6665 12.9167H6.11653C6.64986 12.9167 7.08317 13.35 7.08317 13.8833V14.95" stroke="#0F2289" stroke-width="1.5" stroke-miterlimit="10" stroke-linecap="round" stroke-linejoin="round"/>
<path d="M2.68315 11.9L1.6665 12.9167L2.68315 13.9333" stroke="#0F2289" stroke-width="1.5" stroke-miterlimit="10" stroke-linecap="round" stroke-linejoin="round"/>
<path d="M7.08317 17.3167H2.63315C2.09981 17.3167 1.6665 16.8833 1.6665 16.35V15.2834" stroke="#0F2289" stroke-width="1.5" stroke-miterlimit="10" stroke-linecap="round" stroke-linejoin="round"/>
<path d="M6.06738 18.3336L7.08403 17.3169L6.06738 16.3003" stroke="#0F2289" stroke-width="1.5" stroke-miterlimit="10" stroke-linecap="round" stroke-linejoin="round"/>
</svg>
