<svg width="51" height="50" viewBox="0 0 51 50" fill="none" xmlns="http://www.w3.org/2000/svg">
<rect x="0.5" width="50" height="50" rx="25" fill="#0F2289"/>
<path d="M33.5665 22.15V27.85C33.5665 28.7833 33.0665 29.65 32.2581 30.125L27.3081 32.9834C26.4998 33.45 25.4998 33.45 24.6831 32.9834L19.7331 30.125C18.9248 29.6584 18.4248 28.7917 18.4248 27.85V22.15C18.4248 21.2167 18.9248 20.35 19.7331 19.875L24.6831 17.0167C25.4915 16.55 26.4915 16.55 27.3081 17.0167L32.2581 19.875C33.0665 20.35 33.5665 21.2084 33.5665 22.15Z" stroke="white" stroke-width="1.5" stroke-linecap="round" stroke-linejoin="round"/>
<path d="M25.9998 24.1667C27.0721 24.1667 27.9414 23.2973 27.9414 22.225C27.9414 21.1526 27.0721 20.2834 25.9998 20.2834C24.9274 20.2834 24.0581 21.1526 24.0581 22.225C24.0581 23.2973 24.9274 24.1667 25.9998 24.1667Z" stroke="white" stroke-width="1.5" stroke-linecap="round" stroke-linejoin="round"/>
<path d="M29.3332 28.8833C29.3332 27.3833 27.8415 26.1667 25.9998 26.1667C24.1582 26.1667 22.6665 27.3833 22.6665 28.8833" stroke="white" stroke-width="1.5" stroke-linecap="round" stroke-linejoin="round"/>
</svg>
