<svg width="51" height="50" viewBox="0 0 51 50" fill="none" xmlns="http://www.w3.org/2000/svg">
<rect x="0.5" width="50" height="50" rx="25" fill="#0F2289"/>
<path d="M17.1665 25.5083H31.3332" stroke="white" stroke-width="1.5" stroke-miterlimit="10" stroke-linecap="round" stroke-linejoin="round"/>
<path d="M31.3332 23.5667V29.525C31.3082 31.9 30.6581 32.5 28.1831 32.5H20.3165C17.7999 32.5 17.1665 31.875 17.1665 29.3917V23.5667C17.1665 21.3167 17.6915 20.5917 19.6665 20.475C19.8665 20.4667 20.0832 20.4583 20.3165 20.4583H28.1831C30.6998 20.4583 31.3332 21.0833 31.3332 23.5667Z" stroke="white" stroke-width="1.5" stroke-linecap="round" stroke-linejoin="round"/>
<path d="M33.8332 20.6083V26.4333C33.8332 28.6833 33.3082 29.4083 31.3332 29.525V23.5667C31.3332 21.0833 30.6998 20.4583 28.1831 20.4583H20.3165C20.0832 20.4583 19.8665 20.4667 19.6665 20.475C19.6915 18.1 20.3415 17.5 22.8165 17.5H30.6831C33.1998 17.5 33.8332 18.125 33.8332 20.6083Z" stroke="white" stroke-width="1.5" stroke-linecap="round" stroke-linejoin="round"/>
<path d="M19.875 29.8417H21.3083" stroke="white" stroke-width="1.5" stroke-miterlimit="10" stroke-linecap="round" stroke-linejoin="round"/>
<path d="M23.0918 29.8417H25.9585" stroke="white" stroke-width="1.5" stroke-miterlimit="10" stroke-linecap="round" stroke-linejoin="round"/>
</svg>
