<svg width="51" height="50" viewBox="0 0 51 50" fill="none" xmlns="http://www.w3.org/2000/svg">
<rect x="0.5" width="50" height="50" rx="25" fill="#0F2289"/>
<path d="M21.6082 31.4167C22.2915 30.6833 23.3332 30.7417 23.9332 31.5417L24.7748 32.6667C25.4498 33.5583 26.5415 33.5583 27.2165 32.6667L28.0582 31.5417C28.6582 30.7417 29.6998 30.6833 30.3832 31.4167C31.8665 33 33.0748 32.475 33.0748 30.2583V20.8667C33.0832 17.5083 32.2998 16.6667 29.1498 16.6667H22.8498C19.6998 16.6667 18.9165 17.5083 18.9165 20.8667V30.25C18.9165 32.475 20.1332 32.9917 21.6082 31.4167Z" stroke="white" stroke-width="1.5" stroke-linecap="round" stroke-linejoin="round"/>
<path d="M22.7466 24.1667H22.754" stroke="white" stroke-width="2" stroke-linecap="round" stroke-linejoin="round"/>
<path d="M25.082 24.1667H29.6654" stroke="white" stroke-width="1.5" stroke-linecap="round" stroke-linejoin="round"/>
<path d="M22.7466 20.8333H22.754" stroke="white" stroke-width="2" stroke-linecap="round" stroke-linejoin="round"/>
<path d="M25.082 20.8333H29.6654" stroke="white" stroke-width="1.5" stroke-linecap="round" stroke-linejoin="round"/>
</svg>
